<?xml version="1.0" encoding="utf-8"?>
<!-- Generator: Adobe Illustrator 22.0.1, SVG Export Plug-In . SVG Version: 6.00 Build 0)  -->
<svg version="1.1" id="Layer_1" xmlns="http://www.w3.org/2000/svg" xmlns:xlink="http://www.w3.org/1999/xlink" x="0px" y="0px"
	 viewBox="0 0 1600 900" style="enable-background:new 0 0 1600 900;" xml:space="preserve">
<style type="text/css">
	.st0{fill:url(#SVGID_1_);}
	.st1{fill:#FEFEFE;}
	.st2{fill:#3498DA;}
	.st3{fill:#F2E3B2;}
	.st4{fill:#FAFE17;}
	.st5{fill:#808080;}
	.st6{opacity:0.6;}
	.st7{opacity:0.5;}
	.st8{fill:#FEFDFD;}
	.st9{fill:#FE6707;}
	.st10{fill:#2B80FE;}
	.st11{fill:#AAD306;}
	.st12{fill:#FDFDFC;}
	.st13{fill:#545E6D;}
	.st14{fill:#A6C2E2;}
	.st15{fill:#FDFDFD;}
	.st16{fill:#515151;}
	.st17{fill:#0E9FDD;}
	.st18{fill:#184A7F;}
	.st19{opacity:0.4;}
	.st20{opacity:0.7;}
	.st21{fill:#4F4F4F;}
	.st22{opacity:0.8;}
	.st23{fill:#FC8469;}
	.st24{fill:#4DDAC3;}
	.st25{fill:#56BFE9;}
	.st26{fill:#334A5E;}
	.st27{fill:#FECF5C;}
</style>
<radialGradient id="SVGID_1_" cx="800" cy="450" r="649.0377" gradientUnits="userSpaceOnUse">
	<stop  offset="0.7388" style="stop-color:#FFFFFF;stop-opacity:0"/>
	<stop  offset="0.8057" style="stop-color:#FFFFFF;stop-opacity:0.4301"/>
	<stop  offset="0.8165" style="stop-color:#FFFFFF;stop-opacity:0.5"/>
	<stop  offset="0.8231" style="stop-color:#DBC01F"/>
	<stop  offset="0.8304" style="stop-color:#F1DC3A"/>
	<stop  offset="0.835" style="stop-color:#F5E13F"/>
	<stop  offset="0.8386" style="stop-color:#DBC01F"/>
	<stop  offset="0.8523" style="stop-color:#E1CB46"/>
	<stop  offset="0.872" style="stop-color:#E9D976"/>
	<stop  offset="0.8922" style="stop-color:#F0E4A0"/>
	<stop  offset="0.9126" style="stop-color:#F5EEC3"/>
	<stop  offset="0.9332" style="stop-color:#FAF5DD"/>
	<stop  offset="0.9543" style="stop-color:#FDFBF0"/>
	<stop  offset="0.976" style="stop-color:#FEFEFB"/>
	<stop  offset="0.9993" style="stop-color:#FFFFFF"/>
</radialGradient>
<rect class="st0" width="1600" height="900"/>
<g>
	<g>
		<path class="st1" d="M1518.2,149.4c-24.1,0-48.1,0-72.2,0c-0.8,0-0.9-0.2-0.9-0.9c0-48.1,0-96.3,0-144.4c0-0.8,0.2-0.9,0.9-0.9
			c48.1,0,96.3,0,144.4,0c0.8,0,0.9,0.2,0.9,0.9c0,48.1,0,96.3,0,144.4c0,0.8-0.2,0.9-0.9,0.9
			C1566.4,149.4,1542.3,149.4,1518.2,149.4z M1517.8,9.8c-3-0.1-6.3,0.3-9.6,1c-11.4,2.4-20.9,8.1-28.4,17
			c-6.8,8.1-10.5,17.5-11.4,28.1c-0.6,6.7,1,13,3.5,19.1c3.5,8.8,8.3,16.9,13.4,24.8c9.5,14.6,20.2,28.3,31.7,41.4
			c1.2,1.3,1.2,1.3,2.2,0.2c10-11.5,19.4-23.3,28-35.9c6.4-9.3,12.2-18.9,16.7-29.2c3.6-8.3,5-16.8,3.3-25.9
			C1562.7,26.9,1542.2,9.8,1517.8,9.8z"/>
		<path class="st2" d="M1517.8,9.8c24.4,0,44.9,17.1,49.4,40.6c1.7,9,0.3,17.6-3.3,25.9c-4.5,10.4-10.3,19.9-16.7,29.2
			c-8.6,12.5-18,24.4-28,35.9c-1,1.2-1,1.2-2.2-0.2c-11.4-13.2-22.1-26.8-31.7-41.4c-5.1-7.9-9.9-16-13.4-24.8
			c-2.5-6.1-4-12.4-3.5-19.1c0.9-10.5,4.6-20,11.4-28.1c7.5-8.9,17-14.6,28.4-17C1511.5,10.1,1514.8,9.8,1517.8,9.8z M1518.2,30.6
			c-13.7,0-24.9,11.1-25,24.8c0,13.7,11.2,25,24.9,25c13.7,0,24.9-11.2,24.9-24.9C1543.1,41.7,1532,30.6,1518.2,30.6z"/>
		<path class="st1" d="M1518.2,30.6c13.8,0,24.9,11.2,24.9,25c0,13.7-11.2,24.9-24.9,24.9c-13.7,0-24.9-11.3-24.9-25
			C1493.3,41.7,1504.5,30.6,1518.2,30.6z"/>
	</g>
</g>
<g>
	<g>
		<path class="st1" d="M1028.7,641.7c0-49.1,0-98.2-0.1-147.3c0-2.3,0.4-2.7,2.7-2.7c48.2,0.1,96.4,0.1,144.7,0
			c2.3,0,2.7,0.4,2.7,2.7c-0.1,48.2-0.1,96.4,0,144.7c0,2.3-0.4,2.7-2.7,2.7C1126.9,641.6,1077.8,641.7,1028.7,641.7z M1043.9,549.6
			c-0.1,14.6,4.6,25.6,14.2,34.4c13.3,12.2,28.6,15.2,45.6,9.6c2.6-0.9,4.2-0.6,6.1,1.4c9.8,10,19.8,19.8,29.6,29.8
			c1.8,1.9,3.6,2.5,6.2,1.8c7.8-2.2,13.1-7.2,16.5-14.4c2.4-5.1,1.7-7.3-2-10.9c-9.7-9.4-19.2-19.1-28.8-28.7
			c-1.5-1.4-1.9-2.5-1-4.5c3.3-7.5,4.1-15.4,2.9-23.4c-3.8-24.3-26.1-41.6-51.2-37.9C1060.8,509.9,1043,529.9,1043.9,549.6z"/>
		<path class="st3" d="M1043.9,549.6c-0.9-19.7,16.9-39.7,38.1-42.8c25.1-3.6,47.3,13.7,51.2,37.9c1.3,7.9,0.4,15.9-2.9,23.4
			c-0.9,2-0.5,3.1,1,4.5c9.6,9.5,19.1,19.2,28.8,28.7c3.7,3.5,4.4,5.8,2,10.9c-3.4,7.1-8.6,12.2-16.5,14.4c-2.6,0.7-4.3,0.1-6.2-1.8
			c-9.8-10-19.8-19.8-29.6-29.8c-1.9-1.9-3.5-2.2-6.1-1.4c-17,5.5-32.4,2.5-45.6-9.6C1048.5,575.3,1043.8,564.3,1043.9,549.6z
			 M1088.6,581.1c17.2,1,30-14.5,30.1-29c0.1-16.7-12.3-30.6-29.6-30.8c-17-0.2-29.9,12.5-30.4,29.6
			C1058.2,567,1072.2,582,1088.6,581.1z"/>
		<path class="st1" d="M1088.6,581.1c-16.4,1-30.4-14.1-29.9-30.2c0.5-17.1,13.5-29.8,30.4-29.6c17.3,0.2,29.7,14.1,29.6,30.8
			C1118.6,566.6,1105.8,582,1088.6,581.1z"/>
	</g>
</g>
<g>
	<g>
		<path class="st1" d="M561.9,48.7c154.5,0,308.9,0,463.4,0c1,0,1.2,0.2,1.2,1.2c0,202.5,0,405.1,0,607.6c0,1-0.2,1.2-1.2,1.2
			c-154.1,0-308.1,0-462.2,0c-1,0-1.2-0.2-1.2-1.2C561.9,454.6,561.9,251.6,561.9,48.7z M781.8,656.2c4.3,0.1,9.9-0.1,15.5-0.3
			c7.1-0.2,14.1,0.1,21.2-0.2c8.4-0.4,16.9,0.1,25.4-0.3c8.3-0.3,16.7,0.1,25-0.2c1,0,1.5-0.3,1.9-1.3c1.7-4.3,3.8-8.4,5.4-12.7
			c2.4-6.3,5.4-12.3,7.8-18.7c2.4-6.4,5.5-12.5,7.9-18.9c2.5-6.5,5.6-12.8,8.1-19.3c2.3-6.1,5.3-12,7.7-18.2
			c2.5-6.3,5.5-12.3,7.8-18.7c2.4-6.4,5.6-12.6,8-19c2.3-6.2,5.4-12.2,7.7-18.4c2.4-6.3,5.4-12.4,7.9-18.7
			c2.5-6.3,5.4-12.4,7.9-18.8c3-7.6,6.5-15,9.5-22.6c2-5,4.5-9.8,6.2-14.9c0.3-1,0.7-2.1,1.5-3c3.8-4.2,7.6-8.5,10.9-13.1
			c3.7-5.2,7.7-10.2,11-15.7c3.7-6.2,7.7-12.3,10.8-18.8c2.6-5.6,5.6-11,7.8-16.8c2.6-6.7,5.4-13.2,7.3-20.2
			c1.7-6.6,3.8-13,5.1-19.7c1.8-9.3,3.5-18.6,4.2-28.1c0.4-5.8,1.1-11.7,0.8-17.6c-0.3-4.4,0-8.9-0.2-13.3
			c-0.3-3.9-0.4-7.9-0.9-11.8c-1.2-9.4-2.2-18.8-4.6-28c-2.8-10.6-5.4-21.1-9.6-31.3c-5.7-13.9-11.8-27.6-20.3-40.1
			c-3.6-5.4-7-10.9-11.1-16c-4.3-5.4-8.4-10.8-13.1-15.8c-4.6-4.8-9-9.8-14.1-14.2c-5-4.3-9.8-8.9-15.2-12.8
			c-5.4-3.9-10.5-8.1-16.2-11.4c-5.7-3.3-11.1-7-17.1-9.9c-6.5-3.1-12.8-6.6-19.6-9.1c-5.9-2.2-11.7-4.8-17.9-6.5
			c-7.1-1.9-14.1-4.3-21.4-5.7c-9.4-1.9-18.8-3.3-28.4-4.1c-6-0.5-12-0.8-18-0.7c-7.9,0.1-15.7,0.1-23.6,1.1
			c-9.3,1.2-18.6,2.1-27.7,4.4c-10.5,2.7-21.1,5.1-31.1,9.4c-3.9,1.7-8,3.1-11.8,4.8c-9.2,4.2-18.3,8.5-26.7,14.2
			c-3.7,2.5-7.6,4.7-11.3,7.4c-5.4,4-11,7.8-16,12.2c-5.1,4.5-10.4,8.8-15,13.8c-4.6,4.9-9.5,9.6-13.7,15
			c-4.3,5.5-8.8,10.8-12.7,16.7c-3.3,5.1-6.8,10-9.7,15.3c-3.2,6-6.7,11.7-9.3,17.9c-2.6,6.2-5.6,12.2-7.7,18.6
			c-2.2,6.8-4.8,13.6-6.4,20.6c-1.5,6.8-3.4,13.5-4.3,20.4c-1.1,8.2-2.4,16.3-2.6,24.5c-0.3,8.5-0.7,17,0,25.4
			c0.7,8.1,1.2,16.2,2.6,24.2c2.1,11.8,4.6,23.5,8.6,34.9c3.4,9.7,6.8,19.5,11.7,28.6c2.3,4.3,4.4,8.8,6.9,13.1
			c3.6,6,7,12,11.1,17.6c4.4,6.1,8.7,12.3,13.9,17.7c3.9,4,7.7,8.2,9,13.9c0.2,0.8,0.6,1.5,0.9,2.2c3.1,7.4,5.8,14.9,8.9,22.3
			c5.9,14.2,11.3,28.6,17.2,42.8c3.7,9,7,18.1,10.8,27.1c5.3,12.6,9.9,25.5,15.3,38.1c4.4,10.5,8.2,21.2,12.7,31.7
			c5,11.8,9.1,23.9,14.3,35.6c1.9,4.2,3.4,8.6,5,12.9c0.3,0.9,0.7,1.2,1.6,1.1c2.2-0.1,4.4-0.2,6.7-0.2c7.3-0.2,14.6,0.1,21.9-0.2
			c8.8-0.4,17.6,0.2,26.4-0.3C773.9,656.1,777.2,656.2,781.8,656.2z"/>
		<path class="st4" d="M781.8,656.2c-4.6,0-7.9-0.1-11.2,0c-8.8,0.5-17.6-0.1-26.4,0.3c-7.3,0.3-14.6,0-21.9,0.2
			c-2.2,0-4.4,0.1-6.7,0.2c-0.9,0-1.3-0.2-1.6-1.1c-1.6-4.3-3.2-8.7-5-12.9c-5.2-11.7-9.2-23.9-14.3-35.6
			c-4.5-10.5-8.3-21.2-12.7-31.7c-5.3-12.6-10-25.5-15.3-38.1c-3.8-9-7.1-18.1-10.8-27.1c-5.9-14.2-11.3-28.6-17.2-42.8
			c-3.1-7.4-5.8-14.9-8.9-22.3c-0.3-0.7-0.7-1.4-0.9-2.2c-1.4-5.7-5.2-9.9-9-13.9c-5.2-5.4-9.5-11.6-13.9-17.7
			c-4.1-5.6-7.6-11.6-11.1-17.6c-2.5-4.2-4.6-8.7-6.9-13.1c-4.9-9.1-8.3-18.8-11.7-28.6c-4-11.4-6.5-23.1-8.6-34.9
			c-1.4-8-1.9-16.1-2.6-24.2c-0.7-8.5-0.3-17,0-25.4c0.2-8.3,1.6-16.4,2.6-24.5c0.9-6.9,2.8-13.6,4.3-20.4
			c1.6-7.1,4.2-13.8,6.4-20.6c2.1-6.4,5.1-12.4,7.7-18.6c2.6-6.3,6.2-12,9.3-17.9c2.8-5.4,6.4-10.3,9.7-15.3
			c3.8-5.9,8.3-11.2,12.7-16.7c4.2-5.3,9-10,13.7-15c4.7-5,9.9-9.3,15-13.8c5.1-4.5,10.6-8.3,16-12.2c3.6-2.7,7.5-4.9,11.3-7.4
			c8.4-5.7,17.5-10,26.7-14.2c3.9-1.8,7.9-3.2,11.8-4.8c10-4.2,20.6-6.7,31.1-9.4c9.1-2.3,18.5-3.2,27.7-4.4c7.8-1,15.7-1,23.6-1.1
			c6-0.1,12,0.2,18,0.7c9.5,0.8,19,2.3,28.4,4.1c7.3,1.4,14.3,3.8,21.4,5.7c6.2,1.7,11.9,4.3,17.9,6.5c6.8,2.5,13.1,6,19.6,9.1
			c6,2.9,11.4,6.6,17.1,9.9c5.7,3.4,10.9,7.6,16.2,11.4c5.4,3.9,10.2,8.5,15.2,12.8c5.1,4.4,9.5,9.4,14.1,14.2
			c4.8,5,8.9,10.4,13.1,15.8c4.1,5.1,7.5,10.6,11.1,16c8.5,12.5,14.6,26.2,20.3,40.1c4.1,10.2,6.8,20.7,9.6,31.3
			c2.4,9.2,3.4,18.6,4.6,28c0.5,3.9,0.6,7.9,0.9,11.8c0.3,4.5,0,8.9,0.2,13.3c0.3,5.9-0.4,11.7-0.8,17.6c-0.6,9.5-2.3,18.8-4.2,28.1
			c-1.3,6.7-3.4,13.2-5.1,19.7c-1.8,6.9-4.7,13.5-7.3,20.2c-2.2,5.8-5.2,11.2-7.8,16.8c-3.1,6.6-7.1,12.6-10.8,18.8
			c-3.3,5.5-7.3,10.5-11,15.7c-3.3,4.7-7.1,8.9-10.9,13.1c-0.8,0.9-1.2,1.9-1.5,3c-1.7,5.1-4.2,9.9-6.2,14.9c-3,7.6-6.5,15-9.5,22.6
			c-2.5,6.3-5.5,12.4-7.9,18.8c-2.5,6.3-5.5,12.3-7.9,18.7c-2.4,6.2-5.4,12.2-7.7,18.4c-2.4,6.5-5.6,12.6-8,19
			c-2.4,6.3-5.4,12.4-7.8,18.7c-2.4,6.1-5.4,12-7.7,18.2c-2.5,6.5-5.6,12.8-8.1,19.3c-2.4,6.4-5.5,12.5-7.9,18.9
			c-2.4,6.3-5.4,12.4-7.8,18.7c-1.6,4.3-3.7,8.4-5.4,12.7c-0.4,0.9-0.9,1.2-1.9,1.3c-8.3,0.3-16.7-0.1-25,0.2
			c-8.5,0.3-16.9-0.1-25.4,0.3c-7.1,0.3-14.1,0-21.2,0.2C791.7,656.1,786.1,656.4,781.8,656.2z"/>
	</g>
</g>
<path class="st5" d="M864,698.2l-134.3,21.4c-6.5,1-12.7-3.4-13.7-10l-2.4-14.8c-1-6.5,3.4-12.7,10-13.7l134.3-21.4
	c6.5-1,12.7,3.4,13.7,10l2.4,14.8C875.8,696,869.2,697.3,864,698.2z"/>
<path class="st5" d="M858.3,706.7L724,728.1c-6.5,1-11,7.2-10,13.7l1.7,10.9c1,6.5,7.2,11,13.7,10l134.3-21.4c6.5-1,11-7.2,10-13.7
	l-1.7-10.9C871,710.1,864.8,705.7,858.3,706.7z"/>
<path class="st5" d="M862.8,750l-141.2,22.5c-4.6,0.7-7.8,5.1-7.1,9.7v0c0.7,4.6,5.1,7.8,9.7,7.1l141.2-22.5
	c4.6-0.7,7.8-5.1,7.1-9.7l0,0C871.8,752.4,867.4,749.2,862.8,750z"/>
<path class="st5" d="M786.8,859.9l-12.7-0.9c-12.6-0.9-25.6-7.9-32-18.2v0c-9.1-14.7-5.3-37.2,18.5-45.2l28.9-9.7
	c50.7-17.1,75.4,17.9,51.3,50l0,0C827.9,853.1,804.1,861.1,786.8,859.9z"/>
<g class="st6">
	<g>
		<path d="M352.8,140.7c0-17.6,0-35.2,0-52.8c0-5.1,2.2-9.3,6.2-12.6c3.6-3.1,7.8-4.5,12.5-3.5c5.2,1.1,9.2,4.1,11.5,9
			c0.7,1.4,0.9,2.9,1.4,4.2c1,2.6,0.5,5.1,0.5,7.6c0.1,31.4,0,62.9,0,94.3c0,1.8,0,1.9,1.9,1.9c2.4,0,4.8-0.1,7.2,0
			c1.1,0,1.3-0.3,1.3-1.3c0-14.7,0-29.4,0-44c0-2.5,0-5.1,0.9-7.4c0.9-2.2,1.9-4.4,3.9-6c1-0.8,1.8-1.9,3-2.5c1.7-1,3.4-1.7,5.3-2.1
			c0.8-0.2,1.6-0.5,2.5-0.5c2.7-0.1,5.1,0.8,7.5,1.9c2.7,1.2,4.8,3.3,6.5,5.8c1.1,1.7,1.7,3.5,2.4,5.4c0.3,1,0.2,2.1,0.2,3.2
			c0,11.8,0,23.7,0,35.5c0,1.6,0,1.6,1.6,1.6c2.4,0,4.8,0,7.2,0c1.7,0,1.7,0,1.7-1.6c0-8.3-0.1-16.6,0-24.8
			c0.1-4.7,1.9-8.6,5.4-11.9c1.5-1.4,3.2-2.4,5-3.2c2.4-1,5-1.2,7.6-0.9c7.7,0.9,14,8.1,14,15.7c0,11.8,0,23.6,0,35.4
			c0,0.3,0,0.6-0.1,0.8c-0.1,0.9,0.2,1.1,1.1,1.1c2.8,0,5.5,0,8.3,0c1.1,0,1.4-0.4,1.4-1.5c0-8.1,0.1-16.2-0.1-24.4
			c-0.1-4.9,1.9-8.9,5.3-12.2c4.8-4.7,12.3-5.8,17.8-2.7c6.6,3.6,10.2,9.3,10.2,17c0,20.8,0,41.6,0,62.4c0,5.8,0.2,11.6,0,17.4
			c-0.1,4.9-0.3,9.9-0.9,14.8c-0.4,2.8-1.1,5.6-1.8,8.3c-1.8,6.2-4.2,12.2-7.2,17.9c-1.4,2.7-3,5.3-4.8,7.7
			c-1.6,2.1-3.2,4.1-4.9,6.1c-2.2,2.7-4.6,5.1-7.2,7.4c-4.6,4-9.5,7.7-14.9,10.6c-2.4,1.3-4.9,2.6-7.4,3.7c-2.9,1.2-6,2.4-9,3.1
			c-2.4,0.6-4.7,1.3-7.2,1.7c-5.7,1.1-11.3,1.5-17.1,1.3c-2.5-0.1-5,0.1-7.4-0.3c-3.4-0.6-6.8-1.1-10.2-1.7
			c-5.9-1.1-11.4-3.1-16.8-5.5c-1.2-0.6-2.6-1-3.8-1.5c-1.4-0.6-2.8-1.5-4.1-2.3c-2.4-1.6-4.9-2.9-7.1-4.8
			c-4.6-3.9-9.2-7.8-13.2-12.3c-2.3-2.5-4.4-5.1-6.6-7.7c-1.2-1.5-2.4-3.1-3.4-4.8c-3-4.6-6.3-8.9-8.9-13.8c-1.5-2.8-3.5-5.4-5-8.2
			c-2.2-4.2-5.1-8-7.4-12.1c-1.7-3.1-3.7-6-5.6-8.9c-4.4-6.9-8.8-13.8-13.3-20.6c-2.9-4.3-5.7-8.7-8.6-12.9
			c-1.9-2.7-3.8-5.4-5.5-8.2c-1.9-3.4-4.3-6.5-6.2-9.9c-2.3-4-4.7-7.9-6.8-12c-1.3-2.6-2.3-5.3-3.3-8c-0.6-1.6-1-3.4-1-5.1
			c-0.1-2.1,0.6-4,1.8-5.8c2.8-4.1,6.9-4.4,11.1-3.7c4.5,0.7,8.6,2.7,12.5,5c2.4,1.4,4.7,2.9,6.9,4.5c2.9,2,5.5,4.4,8.3,6.6
			c3.6,2.8,6.8,6,10.2,9c3.2,2.8,6,6,9.1,8.9c1.8,1.7,3.4,3.5,5.2,5.2c0.1,0.1,0.2,0.2,0.4,0.2c0.2-0.1,0.3-0.3,0.3-0.5
			c0-0.8,0-1.6,0-2.4C352.8,176.3,352.8,158.5,352.8,140.7z"/>
		<path d="M102.9,335.4c-13.2,7.7-24.5,17.5-33.6,30.1c-0.2-0.7-0.2-1.2-0.1-1.8c5.2-21.7,17.5-37.9,37.5-48
			c9.6-4.9,20-7.2,30.8-7.1c1.9,0,3.6-0.3,5.3-1.1c10.6-4.5,21.5-7.5,33-8.7c6.8-0.7,13.4-0.1,19.5,3.5c6.3,3.7,9.5,9.4,10.2,16.6
			c0.6,6-1,11.7-2.8,17.4c-0.9,2.9-1.9,5.7-2.9,8.5c-0.3,0.9-0.3,1.8,0.2,2.7c6,12.1,8.1,24.9,6.9,38.3c-0.2,1.8-0.2,1.8-2,1.8
			c-31.8,0-63.7,0-95.5,0c-1.7,0-1.7,0-1.6,1.7c1.5,16.8,17.1,29.5,33.8,27.6c10.2-1.1,17.9-6.1,23.4-14.7c0.4-0.6,0.8-0.8,1.5-0.8
			c11.4,0,22.7,0,34.1,0c2.9,0,2.9,0,1.7,2.7c-7.9,18.8-21.2,32.3-40.4,39.4c-17.9,6.7-35.8,6-53.3-1.9c-1.2-0.6-2.2-0.5-3.4,0.1
			c-6.5,3.2-13,6.3-20,8.1c-6.1,1.6-12.4,1.9-18.6,0.3c-8.4-2.2-13.3-8.1-14.3-16.7c-0.8-6.9,0.4-13.6,2-20.3
			c4.2-17.1,12.2-32.3,22.4-46.4c6.9-9.7,14.6-18.7,22.7-27.4C100.6,338,101.7,336.7,102.9,335.4z M138.5,366.8c9.4,0,18.8,0,28.2,0
			c2.7,0,2.7,0,2.1-2.6c-4.2-19.9-26.8-30.4-44.7-20.8c-8.7,4.7-14.1,11.9-16,21.7c-0.3,1.7-0.3,1.7,1.4,1.7
			C119.2,366.8,128.9,366.8,138.5,366.8z M101.1,437.9c-0.2-0.4-0.5-0.5-0.8-0.7c-12.4-8-21.5-18.8-27.2-32.3
			c-0.1-0.3-0.1-0.8-0.5-0.9c-0.4,0-0.5,0.5-0.7,0.7c-2,3.6-3.7,7.2-5,11.1c-1.8,5.6-2.9,11.2-1.5,17.1c2,8.8,9.7,14,18.6,12.3
			c6-1.2,11.4-3.9,16.7-6.9C100.7,438.2,100.9,438,101.1,437.9z M163.9,313.8c0.2,0.1,0.3,0.2,0.4,0.2c13.3,5.8,24,14.7,31.9,26.9
			c0.2,0.2,0.2,0.7,0.6,0.6c0.3-0.1,0.4-0.5,0.5-0.8c1.1-3.9,2.4-7.7,3.2-11.7c0.9-4.2,0.6-8.4-1.2-12.3c-2.9-6.1-8.2-8.3-14.6-8.5
			c-6.9-0.2-13.2,1.9-19.4,4.7C164.8,313.1,164.3,313.3,163.9,313.8z"/>
		<path d="M31.5,60.6C31.8,28.5,57.7,3.4,89.1,3.7c32.4,0.3,57.2,27.4,56.4,58.5c-0.8,29.5-24.9,55.5-57.1,55.5
			C57,117.7,31.5,92,31.5,60.6z M88.5,66.4C88.5,66.4,88.5,66.4,88.5,66.4c-5.1,0-10.2,0-15.2-0.1c-0.7,0-1.1,0.2-1,1
			c0.2,3.2,0.5,6.5,0.9,9.7c0.1,1.2,0.5,1.6,1.7,1.4c5-0.5,10-0.7,15.1-0.7c4.2,0.1,8.3,0.3,12.4,0.7c0.9,0.1,1.3-0.1,1.4-1.1
			c0.4-3.2,0.8-6.4,1-9.7c0.1-0.9-0.1-1.4-1.2-1.4C98.6,66.5,93.5,66.4,88.5,66.4z M88.5,55c5,0,9.9,0,14.9,0c1.1,0,1.4-0.3,1.3-1.4
			c-0.3-3.1-0.7-6.2-1.1-9.3c-0.2-1.2-0.6-1.5-1.8-1.4c-4.7,0.4-9.5,0.7-14.2,0.7c-4.2-0.1-8.4-0.3-12.6-0.7c-0.6,0-1.2-0.1-1.3,0.8
			c-0.6,3.2-1,6.5-1.2,9.7c-0.1,1.2,0.2,1.6,1.5,1.6C78.8,54.9,83.7,55,88.5,55z M88.4,89.1c-3.7,0.1-7.6,0.2-11.5,0.6
			c-1,0.1-1.1,0.5-0.9,1.3c1.4,4.7,3.1,9.4,5.2,13.9c0.4,0.8,1,1.1,1.8,1.2c3.6,0.4,7.3,0.4,10.9,0c0.8-0.1,1.4-0.4,1.8-1.2
			c2.1-4.6,3.9-9.3,5.3-14.1c0.2-0.7,0.1-0.9-0.7-1C96.4,89.3,92.5,89.2,88.4,89.1z M87.9,32.2c4.3,0,7.9-0.1,11.6-0.4
			c0.9-0.1,1.2-0.3,0.9-1.3c-1.5-4.8-3.3-9.5-5.4-14.1c-0.3-0.7-0.8-1.1-1.5-1.1c-3.3-0.3-6.5-0.3-9.8,0c-0.6,0.1-1.1,0.3-1.4,0.9
			c-2.2,4.6-4,9.4-5.5,14.3c-0.3,0.9-0.1,1.2,0.8,1.3C81.2,32.1,84.9,32.2,87.9,32.2z M124.8,55c2.6,0,5.3,0,7.9,0
			c0.8,0,1-0.3,0.9-1.1c-0.8-5.4-2.5-10.4-5.1-15.2c-0.4-0.8-0.9-0.9-1.8-0.7c-3.6,1.2-7.2,2.2-11,2.9c-1.1,0.2-1.3,0.6-1.1,1.6
			c0.6,3.8,1.1,7.6,1.3,11.4c0,0.8,0.4,1.1,1.2,1.1C119.7,55,122.3,55,124.8,55z M52.2,55c2.6,0,5.1,0,7.7,0c0.6,0,1.2,0,1.2-0.8
			c0.2-4,0.7-8,1.4-12c0.1-0.7-0.1-1-0.8-1.2c-3.9-0.8-7.8-1.7-11.6-3c-0.6-0.2-1,0-1.4,0.6c-0.8,1.5-1.6,3-2.2,4.6
			c-1.4,3.4-2.4,6.9-3,10.5c-0.2,1,0,1.4,1.2,1.4C47.2,54.9,49.7,55,52.2,55z M52.1,66.4c-2.1,0-4.2,0-6.4,0c-2.5,0-2.5,0-2.1,2.5
			c0.8,4.9,2.5,9.5,4.9,13.8c0.3,0.6,0.8,1,1.5,0.7c3.6-1.2,7.3-2.2,11.1-2.9c0.7-0.2,1-0.4,0.9-1.2c-0.6-3.9-1-7.8-1.1-11.7
			c0-1-0.4-1.2-1.3-1.2C57.1,66.5,54.6,66.4,52.1,66.4z M133.7,67.1c0.3-0.7-0.3-0.6-0.9-0.6c-5.2,0-10.4,0-15.6-0.1
			c-0.7,0-1.1,0.3-1.1,1c-0.2,3.9-0.5,7.8-1.1,11.7c-0.1,0.8,0.1,1.3,1,1.4c3.7,0.7,7.4,1.7,11,2.9c0.6,0.2,1.1,0.1,1.4-0.5
			C131.1,78,132.8,72.8,133.7,67.1z M109,20c0,0.3-0.1,0.4,0,0.6c0.9,2.9,1.9,5.8,2.8,8.8c0.2,0.7,0.7,0.7,1.3,0.6
			c2.2-0.4,4.3-0.9,6.4-1.5c0.7-0.2,1-0.4,0.3-1c-1.3-1-2.5-2.2-3.8-3.2C113.8,22.6,111.5,21.2,109,20z M68.2,19.9
			c-4.2,2.1-7.8,4.6-11,7.7c-0.6,0.6-0.2,0.7,0.3,0.8c2.2,0.5,4.3,1,6.5,1.6c0.7,0.2,1.1-0.1,1.3-0.8c0.7-2.3,1.4-4.6,2.2-6.9
			C67.7,21.6,68.1,20.9,68.2,19.9z M67.3,100.7c-0.8-3-2-5.8-2.6-8.6c-0.1-0.6-0.7-0.8-1.3-0.6c-1.9,0.5-3.8,1-5.7,1.4
			c-1,0.2-0.9,0.6-0.3,1.2c2,2,4.3,3.7,6.7,5.2C65.1,99.9,66,100.5,67.3,100.7z M113.3,91.5c-0.6-0.1-0.8,0.3-1,0.8
			c-0.8,2.7-1.4,5.5-2.6,8.1c-0.1,0.1-0.2,0.3,0,0.4c0.2,0.2,0.5,0.1,0.7,0c3.4-1.9,6.6-4.1,9.4-6.8c0.6-0.5,0.3-0.8-0.3-1
			C117.4,92.5,115.4,92,113.3,91.5z"/>
		<path d="M310.3,86.7c0-1,0-1.9,0-2.9c-0.1-3.1,0.6-6,1.3-8.9c0.5-2.3,1-4.5,1.8-6.6c2.1-5.6,5-10.8,8.6-15.7c2.7-3.7,6-6.9,9.3-10
			c1.8-1.7,3.9-3.1,6.1-4.4c1.1-0.7,2.2-1.5,3.4-2.1c1.5-0.9,3-1.5,4.6-2.1c2.5-1,4.9-2.1,7.5-2.9c1.2-0.4,2.6-0.4,3.7-0.8
			c2.5-0.9,5-0.7,7.5-1.1c3.3-0.5,6.6-0.4,9.9,0.1c0.6,0.1,1.2,0.2,1.8,0.2c7.5,0.7,14.4,3.1,20.9,6.7c3.6,2,7.2,4.3,10.3,7
			c3.8,3.4,7.3,7.2,10.2,11.5c3.6,5.3,6.2,11.1,8,17.2c0.9,2.9,1.3,5.9,1.8,9c0.4,3.1,0.7,6.2,0.4,9.3c-0.3,2.6-0.7,5.3-1.2,7.9
			c-1.1,5.6-3.5,10.7-5.6,16c-0.6,1.5-2,1.1-2.8,0.8c-2.6-0.9-5.3-0.6-8-0.7c-0.4,0-0.9,0.1-1.1-0.3c-0.2-0.4,0-0.8,0.3-1.1
			c2.2-3.2,3.9-6.7,5.2-10.4c1.3-3.7,2.2-7.4,2.2-11.3c0-0.9,0-1.8,0.5-2.7c0.1-0.3,0.2-0.7,0.1-0.9c-0.8-2.4-0.4-4.9-0.8-7.4
			c-0.2-1.6-0.6-3.3-1-4.9c-1.7-6-4.4-11.6-8.2-16.6c-4-5.2-8.7-9.6-14.5-12.8c-2.7-1.5-5.4-2.8-8.3-3.6c-3.5-1.1-7-2-10.7-2.1
			c-2.9-0.1-5.9-0.3-8.8-0.1c-2.9,0.2-5.7,0.9-8.6,1.5c-2.2,0.5-4.3,1.2-6.2,2.1c-4,1.9-7.9,4.1-11.4,7c-3.1,2.6-5.8,5.5-8.2,8.7
			c-2.2,2.9-4,6-5.3,9.3c-1.8,4.3-2.9,8.7-3.5,13.4c-0.5,4.7-0.4,9.4,0.4,14c1.7,9.5,6.1,17.7,12.8,24.6c2.2,2.3,4.6,4.3,7.2,6.1
			c0.6,0.4,0.8,0.9,0.8,1.5c0,3.4,0,6.8,0,10.2c0,1.2-0.5,1.5-1.5,0.9c-4.7-2.6-9-5.8-12.9-9.5c-4-3.8-7.4-8.2-10.1-13
			c-1.6-2.7-2.7-5.7-3.9-8.6c-1-2.5-1.7-5.1-2.3-7.7c-0.6-2.6-1.1-5.2-1.3-7.9C310.1,90.7,310.2,88.7,310.3,86.7
			C310.3,86.7,310.3,86.7,310.3,86.7z"/>
		<path d="M106,263.2c-0.1,0-0.6-0.1-1-0.4c-6.5-4.7-12.7-9.9-17.8-16.1c-0.1-0.1-0.2-0.2-0.2-0.3c-1.9-2.4-1.9-2.4-0.4-5.1
			c0.7-1.2,1.4-2.4,1.4-3.8c0.1-1.6,1-2.3,2.3-2.8c4.5-1.8,8.7-4.2,12.7-6.9c7.9-5.1,14.5-11.5,20-19.1c0.8-1.1,1.6-1.8,3.1-1.9
			c1.7-0.1,3.3-0.5,4.8-1.5c0.7-0.5,1.1-0.3,1.6,0.3c5.5,5.9,10.3,12.3,13.7,19.7c0.6,1.3,0.4,2.5-0.1,3.7
			c-3.2,6.6-7.2,12.5-12.3,17.8c-6.7,6.9-14.5,12.1-23.7,15.1C108.8,262.3,107.7,263.2,106,263.2z"/>
		<path d="M135.7,162.2c-0.7,5.4-1.6,11.2-3.8,16.7c-0.3,0.7-0.3,1.8-1.1,2.2c-0.8,0.4-1.5-0.5-2.2-0.7c-3.8-1.4-7.4-0.5-10.6,1.4
			c-1.8,1.1-3.1,1-4.9-0.1c-6.6-3.9-13.8-6.4-21.2-8.4c-4.1-1.1-8.3-1.5-12.4-2.3c-0.6-0.1-1-0.3-1.2-0.9c-0.7-1.9-1.9-3.5-3.3-4.9
			c-1.5-1.5-1.6-1.9-0.7-3.8c3.3-7,7.7-13.4,12-19.9c1.3-2,2.8-2.6,5-2.5c8.3,0.5,16.3,2.4,23.8,5.8c6.4,2.9,12.3,6.6,17.4,11.6
			c0.9,0.8,1.7,1.7,2.5,2.5C135.9,159.8,135.6,160.8,135.7,162.2z"/>
		<path d="M52.2,236c-5.3,0.2-10.6-0.2-15.9-1c-1.9-0.3-3-1.1-3.9-2.8c-1.9-3.6-3.4-7.3-4.8-11.1c-0.7-1.9-1.1-4-1.4-6.1
			c-0.9-5-1.5-10-1.2-15c0.1-2.9,0.3-5.9,0.9-8.8c0.2-0.8,0.5-1.3,1.2-1.7c6.9-4.2,14.2-7.5,22.1-9.3c0.7-0.2,1.4-0.4,2-0.7
			c0.9-0.4,1.5-0.1,1.9,0.8c1.2,3.7,3.8,6,7.4,7.3c0.8,0.3,0.8,0.8,0.7,1.4c-0.5,4.6-0.2,9.3,0.3,13.9c0.6,5.6,1.8,11,3.5,16.4
			c0,0.2,0.1,0.3,0.2,0.5c1,2.2,0.9,4-1,6c-2.3,2.4-2.8,5.8-3.2,9c-0.1,1-0.4,1.4-1.4,1.4C56.9,236,54.6,236,52.2,236z"/>
		<path d="M68,191.5c0-0.2,0-0.4,0-0.6c0-2.4,0-2.4,2.4-2.9c3.9-0.7,7.2-4,8.1-8c0-0.2,0-0.3,0.1-0.5c0.4-1.6,0.5-1.6,2.1-1.4
			c4.8,0.7,9.5,1.6,14.2,3c5.6,1.6,11,3.7,16.2,6.6c0.8,0.5,0.9,1,0.8,1.9c-0.8,3.7-0.6,7.2,1.2,10.6c0.8,1.5,1.9,2.8,3.3,3.9
			c1.2,0.9,1.2,1.1,0.3,2.3c-4,5-8.6,9.2-13.7,13c-4.5,3.4-9.4,6.3-14.4,8.8c-0.8,0.4-1.1,0.2-1.5-0.5c-3-5-7.3-7.4-13.2-7.1
			c-0.9,0.1-1.4-0.2-1.7-1.1c-1.4-4-2.1-8.1-2.8-12.2C68.4,202,68.5,196.7,68,191.5z"/>
		<path d="M395.3,98c0-3.5,0-7,0-10.6c0.1-10.6-6.7-20.5-16.4-24.4c-4.7-1.9-9.6-2.6-14.5-1.6c-9.4,1.8-16.5,7-20.3,16.1
			c-1.5,3.7-1.9,7.5-1.9,11.5c0.1,7.6,0,15.3,0,22.9c0,0.3,0.1,0.8-0.3,0.9c-0.4,0.1-0.7-0.2-0.9-0.5c-4.1-4.8-7.3-10.1-8.7-16.4
			c-1-4.7-1.4-9.3-0.5-13.9c1.4-7.2,4.1-13.8,9.4-19.3c2.8-2.9,5.8-5.6,9.4-7.6c5.2-2.9,10.8-4.7,16.8-4.6c3.6,0.1,7.2,0,10.8,1
			c1.9,0.5,3.7,1.2,5.5,2c9.3,4.4,16,11.4,19.8,21c1.5,3.8,2.2,7.8,2.2,11.9c0,5-0.3,9.9-2.2,14.6c-1.8,4.3-4.1,8.1-7.4,11.4
			c-0.2,0.2-0.3,0.4-0.6,0.3c-0.3-0.1-0.3-0.4-0.4-0.7c-0.1-0.4,0-0.7,0-1.1C395.3,106.6,395.3,102.3,395.3,98z"/>
		<path d="M78,140c0,0.6-0.3,1-0.6,1.4c-3.8,5.8-6.8,12-9.7,18.3c-0.8,1.9-0.4,1.9-2.8,1.9c-5.7,0-10.6,3.9-12.3,9.8
			c-0.2,0.7-0.5,1-1.2,1.1c-5.8,1.3-11.5,2.9-17,5.2c-1.5,0.6-2.9,1.3-4.3,2.1c-0.3,0.2-0.7,0.4-1,0.1c-0.3-0.3,0-0.6,0.1-0.9
			c7.8-17.9,20.6-30.6,39.2-37c2.9-1,5.8-1.7,8.8-2.2C77.5,140,77.7,140,78,140z"/>
		<path d="M39.3,242.5c4,0.5,7.8,1.1,11.7,0.9c4.1-0.2,8.2-0.3,12.3-1c0.5-0.1,0.9,0,1.2,0.5c3.1,4.7,7.8,5.5,12.9,4.8
			c1.2-0.2,2,0.1,2.8,1c4.5,5.6,9.8,10.4,14.9,15.4c0.3,0.3,0.8,0.5,0.7,0.9c-0.2,0.5-0.7,0.3-1.1,0.3c-4.6-0.1-9.1,0.3-13.7-0.2
			c-14.1-1.6-26.4-7.1-36.8-16.9C42.4,246.5,40.7,244.7,39.3,242.5z"/>
		<path d="M141.4,168c1.5,1.8,2.6,3.6,3.6,5.5c3.9,7.2,5.9,14.8,6.7,22.9c0.6,6.3,0.2,12.5-1.2,18.7c-0.1,0.3,0,0.6-0.1,0.8
			c-0.1,0.4,0.2,0.9-0.2,1.1c-0.5,0.2-0.8-0.4-1.1-0.8c-2.8-4.5-5.8-8.9-9.2-13c-0.6-0.8-1.3-1.6-2-2.2c-0.9-0.8-1-1.7-0.6-2.8
			c1-2.6,1.1-5.2,0.6-7.9c-0.2-1-0.6-2-1.2-2.8c-0.5-0.7-0.5-1.4-0.1-2.1c1.9-4,3.1-8.3,4-12.6C140.9,171.2,141.2,169.7,141.4,168z"
			/>
	</g>
</g>
<g class="st7">
	<g>
		<path d="M228.7,53.8c11.6,0,22.3,2.6,32.2,8.1c8.7,4.8,15.9,11.4,21.5,19.7c4.5,6.6,7.6,13.8,9.2,21.6c2.7,12.6,1.5,24.9-3.4,36.8
			c-2.5,6-5.7,11.6-9.8,16.6c-7.2,8.7-16,15.3-26.5,19.5c-5.4,2.2-11,3.7-16.8,4.4c-5.6,0.7-11.3,0.6-16.9-0.1
			c-6.7-0.9-13.1-2.6-19.1-5.5c-4-1.9-7.8-4.2-11.4-6.9c-6.4-4.8-11.6-10.6-15.8-17.4c-5.5-9.1-8.5-19-8.9-29.5
			c-0.3-6.8,0.6-13.5,2.6-20.1c1.9-6.3,4.5-12.2,8.1-17.6c6.1-9.1,13.9-16.4,23.7-21.6c6.1-3.2,12.5-5.6,19.3-6.9
			C220.8,54.1,224.9,53.7,228.7,53.8z M165.8,118.4c-0.1,2,0.1,3.9,0.3,5.9c0.8,8.1,3.2,15.6,7.1,22.7c5.8,10.6,14.2,18.6,24.9,24.3
			c9.3,4.9,19.2,7.1,29.7,7c8.2-0.1,16.1-1.8,23.7-5c8.1-3.4,15.2-8.1,21.3-14.4c5.2-5.4,9.4-11.5,12.4-18.4
			c3.3-7.6,5.1-15.6,5.1-23.8c0-7.2-1.1-14.2-3.7-20.9c-4.8-12.8-13-22.8-24.5-30.1c-7.3-4.6-15.4-7.5-24-8.7
			c-10.6-1.6-21.1-0.4-31.1,3.4C191,66.5,179,77.3,171.6,92.9C167.7,101,166,109.5,165.8,118.4z"/>
		<path d="M202.1,110.7c1.3,5.1-0.5,10.9-0.7,16.7c-0.1,2-0.5,3.9-0.7,5.9c-0.1,0.7,0.2,1,0.9,0.8c0.3-0.1,0.7-0.3,1-0.5
			c1.9-0.8,2.4-0.5,3.1,1.3c1.4,3.5,2.8,6.9,4.1,10.4c0.3,0.9,0.8,0.8,1.4,0.6c2.7-1,5.3-2.1,8-3.1c1.7-0.7,2.2-0.5,3,1
			c2.2,4.1,4.4,8.1,6.5,12.2c0.5,1,1.4,2.1,0,2.9c-1.4,0.7-1.9-0.7-2.4-1.6c-2-3.7-4-7.4-5.9-11.1c-0.4-0.8-0.8-0.7-1.5-0.5
			c-2.8,1.1-5.6,2.2-8.5,3.3c-1.6,0.6-2.1,0.3-2.7-1.4c-1.4-3.5-2.8-6.9-4.1-10.5c-0.3-0.8-0.6-1-1.3-0.6c-0.6,0.3-1.3,0.5-1.9,0.8
			c-1.9,0.7-2.8,0-2.6-1.9c0.7-6.5,1.4-13,2.1-19.5c0.3-2.5-0.6-4.8-0.5-7.3c0.3-6,2.2-11.3,5.9-16c4.3-5.4,9.8-8.7,16.4-10.2
			c4.2-1,8.5-0.7,12.7,0.2c0.4,0.1,1.2,0,0.9,0.8c-0.3,0.8-0.2,2.1-1.7,1.7c-2.7-0.6-5.4-0.9-8.2-0.6c-7.4,0.7-13.5,3.9-18.1,9.8
			C203.4,99.1,201.7,105.6,202.1,110.7z"/>
		<path d="M245.3,104.8c0.2,8-4.6,15-11.8,17.9c-6.2,2.6-12.3,2.1-17.9-1.7c-5.6-3.8-8.4-9.2-8-16.1c0.5-8.7,6.6-15.3,14.7-17.3
			c3.1-0.8,6.3-0.9,9.4,0.1c0.5,0.1,1.4,0.1,1.1,0.9c-0.3,0.7-0.4,2.1-1.9,1.7c-1.6-0.4-3.1-0.6-4.8-0.5c-6.5,0.5-11.5,3.5-14.3,9.4
			c-2.5,5.3-2.1,10.5,1.1,15.5c5.3,8.2,17.9,9.2,24.9,2.1c5.5-5.5,6.3-13.7,2.5-19.7c-0.3-0.4-0.5-1-0.9-1.3
			c-1.3-1.1-0.4-2.1,0.2-2.9c0.7-1,1.1,0.2,1.4,0.5c2.6,3.2,4.2,6.9,4.4,11.1C245.3,104.7,245.3,104.9,245.3,104.8z"/>
		<path d="M249.5,130.2c0.5-6.7,1-13.3,1.4-20c0.2-2.3,0.6-4.7,0.3-7c-0.4-3.1-1.8-6-3.6-8.6c-1.4-2.1-3.2-3.9-5.2-5.3
			c-1.3-0.9-0.2-1.4,0.1-2c0.3-0.9,1-0.6,1.6-0.2c2.3,1.8,4.3,3.8,6,6.3c1.8,2.6,3.1,5.4,3.8,8.5c0.5,2.3,0,4.6-0.2,6.9
			c-0.4,6.8-0.8,13.7-1.4,20.5c-0.2,1.9,0.9,3.4,1.6,4.9c1.8,3.8,3.7,7.5,5.6,11.3c0.4,0.8,0.9,1.7-0.2,2.2c-1,0.5-1.8,0.1-2.4-1.1
			c-2.2-4.7-4.6-9.3-6.9-13.9C249.7,131.8,249.5,131,249.5,130.2z"/>
		<path d="M216.9,115.3c-2-2-2-2-0.8-4.5c1.2-2.7,2.4-5.4,3.6-8.1c0.3-0.7,0.6-0.8,1.4-0.5c1.6,0.7,3.3,1.3,5,2.1
			c0.8,0.4,1.2,0.3,1.7-0.5c2.7-5.2,5.4-10.3,8.1-15.4c1.8-3.5,3.7-7,5.5-10.5c0.1-0.2,0.2-0.5,0.3-0.7c-0.5-0.4-1.4,0.7-1.8-0.6
			c-0.4-1.1-0.5-1.8,0.9-2.2c1.2-0.3,2.4-1,3.6-1.4c0.8-0.4,1.4-0.4,1.8,0.7c0.4,1.3,1,2.7,1.6,4c0.3,0.8,0.2,1.2-0.6,1.4
			c-0.6,0.2-1.4,1.1-1.9-0.2c-0.5-1.2-0.9-0.5-1.2,0.1c-2.9,5.5-5.8,11-8.7,16.5c-2,3.9-4.1,7.7-6.1,11.6c-0.4,0.8-0.9,1.1-1.9,0.6
			c-1.5-0.8-3.1-1.2-4.6-2c-1-0.5-1.3-0.1-1.6,0.7C219.6,109.4,218.3,112.3,216.9,115.3z"/>
		<path d="M217.9,80.4c-0.3,0.8-1.1,0.6-1.7,0.9c-0.4,0.2-0.9,0.3-1.1-0.4c-0.2-0.9-0.6-1.7-1-2.5c-0.6-1.5-0.3-2.1,1.4-2.4
			c0.3-0.1,0.5,0,0.6,0.2C216.7,77.5,217.3,78.9,217.9,80.4z"/>
		<path d="M228.4,76.4c0,0.5-0.1,1,0,1.4c0.2,1.1-0.3,1.2-1.3,1.3c-1.1,0.1-1.6-0.1-1.4-1.3c0.1-0.9,0.1-1.8,0-2.7
			c-0.1-0.9,0.2-1.2,1.1-1.3c1.1,0,1.9,0,1.5,1.5C228.3,75.7,228.4,76.1,228.4,76.4C228.4,76.4,228.4,76.4,228.4,76.4z"/>
		<path d="M208.5,85.7c-0.2,0.9-0.9,1.2-1.5,1.7c-0.4,0.4-0.7-0.4-0.9-0.6c-0.9-0.7-1.7-1.5-2.5-2.4c-0.4-0.4-0.4-1,0.1-1.2
			c0.6-0.3,1-1.5,1.8-0.8c1,0.8,1.9,2,2.8,3C208.4,85.5,208.5,85.6,208.5,85.7z"/>
		<path d="M201.4,94.6c-0.1,1-1.1,1.6-2.4,1.1c-0.6-0.3-1.3-0.5-1.9-0.8c-0.6-0.3-1.8-0.2-1.1-1.6c0.6-1.2,1.2-1.4,2.3-0.8
			c0.8,0.4,1.6,0.7,2.5,1.1C201,93.7,201.5,93.7,201.4,94.6z"/>
	</g>
</g>
<g class="st7">
	<g>
		<path d="M1471.4,426.3c-0.7,2.2-1.2,4.6-2.2,6.7c-5.4,12.2-14.9,18.3-28.1,18.6c-5.8,0.1-11.5,0-17.3,0.1c-1.4,0-2.1-0.5-2.8-1.7
			c-10.3-17.8-20.5-35.7-30.9-53.5c-0.8-1.3-0.7-1.9,0.7-2.7c16.6-9.4,33.3-18.9,49.9-28.5c1.2-0.7,1.8-0.6,2.5,0.6
			c8.2,14.3,16.5,28.6,24.7,42.9c1.7,2.9,2.4,6.1,3.4,9.2C1471.4,420.8,1471.4,423.5,1471.4,426.3z"/>
		<path d="M1246.9,491.8c-3.6-6.2-7.2-12.4-10.8-18.6c-7.5-13-15-26-22.6-38.9c-3.4-5.8-3.4-11.5,0-17.3c5-8.7,9.9-17.4,14.9-26
			c0.9-1.5,0.8-2.2-0.8-3.1c-5.3-2.9-10.6-6-15.8-8.9c0-0.3,0.1-0.5,0.1-0.8c4.8,0,9.6,0.1,14.3,0c14.2-0.2,28.5-0.4,42.7-0.7
			c1.8,0,2.9,0.5,3.8,2.1c9.2,16.7,18.4,33.4,27.7,50c-0.9,0.6-1.3-0.2-1.8-0.5c-5-2.8-10-5.6-15-8.6c-1.3-0.8-1.8-0.5-2.5,0.7
			c-9.6,16.7-19.3,33.3-28.8,50C1248.6,477.4,1246.7,484.3,1246.9,491.8z"/>
		<path d="M1381.4,437.1c0,6.5,0.1,12.3-0.1,18.1c-0.1,2.4,0.5,3.1,3,3.1c18.5-0.1,37-0.1,55.5,0c7.6,0,14.8-1.6,21.2-5.9
			c0.6,0.7-0.1,1.1-0.3,1.6c-10.9,19-21.8,38.1-32.8,57.1c-3.3,5.7-8.3,8.2-14.8,8.1c-9.7-0.1-19.3,0.1-29-0.1
			c-2.2,0-2.9,0.5-2.8,2.8c0.2,5.8,0.1,11.7,0.1,17.6c-1-0.2-1.2-1-1.5-1.5c-9.5-15.9-19.1-31.8-28.6-47.8c-0.6-1.1-0.9-1.9-0.2-3.2
			c9.8-16.3,19.5-32.6,29.3-48.8C1380.5,438,1380.7,437.9,1381.4,437.1z"/>
		<path d="M1435.7,311.5c0,1.3-0.5,1.8-0.9,2.5c-8.9,16-17.8,32-26.7,48c-0.7,1.3-1.5,2-3.1,2c-18.7-0.3-37.3-0.6-56-0.8
			c-0.4,0-0.8,0-1.3-0.1c-0.1-1,0.8-1,1.3-1.3c4.8-2.8,9.5-5.5,14.4-8.1c1.3-0.7,1.9-1.2,1-2.8c-9.7-16.8-19.3-33.7-29.1-50.4
			c-3.8-6.6-7.8-10.1-15-14.2c0.5-0.6,1.2-0.4,1.8-0.4c21.6,0,43.1,0,64.7,0c7,0,12.1,2.8,15.6,9c4.7,8.4,9.8,16.7,14.6,25
			c0.9,1.6,1.5,2.1,3.3,1C1425.2,317.6,1430.4,314.7,1435.7,311.5z"/>
		<path d="M1300.3,457.7c10.2,0,20.4,0,30.5,0c1.8,0,2.7,0.3,2.6,2.4c-0.1,18.8-0.1,37.7,0,56.5c0,2-0.6,2.6-2.6,2.5
			c-16-0.1-32.1,0-48.1-0.1c-19-0.1-32.5-17.6-27.8-36.1c0.9-3.5,2.1-6.8,3.9-9.9c2.5-4.4,5-8.7,7.3-13.1c1-1.9,2.2-2.4,4.2-2.4
			C1280.2,457.8,1290.3,457.7,1300.3,457.7z"/>
		<path d="M1303.3,288.3c10,0,18.1,4,24,12.1c4.4,5.9,7.7,12.6,11.6,18.8c0.8,1.3,0,2.1-0.5,3c-9.7,16.7-19.3,33.4-29,50.2
			c-2.7,4.7-2.7,4.7-7.3,2c-15.4-8.9-30.7-17.9-46.1-26.8c-1.8-1-2.3-1.7-1.1-3.7c8.2-13.9,16.1-27.8,24.3-41.7
			C1284.4,293,1292.9,288.3,1303.3,288.3z"/>
	</g>
</g>
<g class="st6">
	<g>
		<path class="st8" d="M370,345.1c55.7,0,111.3,0,167-0.1c3.8,0,4.5,0.7,4.5,4.5c-0.2,38.5-0.1,76.9-0.1,115.4c-0.8-0.3-0.9-1-1-1.7
			c-6-30.8-32.5-50.2-63.8-46.9c-3.7,0.4-7.1,2.7-11,1.4c-0.6-0.6-1.3-1.3-1.9-1.9c-12.4-12.3-26.6-21.2-44.3-23.6
			c-0.4-0.3-0.9-0.6-1.3-0.9c-4.8-18.6-15.3-32.6-32.9-41C380.3,347.9,374.9,347.4,370,345.1z"/>
		<path class="st8" d="M541.4,482.4c0,38.3-0.1,76.5,0.1,114.8c0,3.3-0.7,3.9-3.9,3.9c-56.2-0.1-112.4-0.1-168.7-0.1
			c1.6-2.1,4-1,6.1-1.5c22.2-6.2,36.1-20.5,42.6-42.4c0.3,0,0.5,0,0.8,0c0.9,1.9,2.5,1.2,3.8,0.8c17-4.3,31.7-12.6,43.5-25.6
			c1-1,2.3-2,1.1-3.6c1.8-0.5,3.6,0,5.4,0.4c28.7,6.2,58.1-11.1,66.8-39.2C539.7,487.5,539.4,484.6,541.4,482.4z"/>
		<path class="st9" d="M541.4,482.4c-2,2.1-1.7,5-2.5,7.5c-8.6,28.1-38,45.4-66.8,39.2c-1.8-0.4-3.5-0.9-5.4-0.4
			c-2.9-1.2-5.8-2.3-8.7-3.5c-0.5-1.9-2.3-2.2-3.7-3.1c-36.3-22.7-37.3-72.5-2.1-96.9c1.3-0.9,3.1-1.4,3.5-3.2
			c1.4-0.8,2.8-1.5,4.1-2.3c1.4,0.4,2.9,0.8,3.5-1.1l-0.1,0.1c1.2,0.5,2.2,0.6,2.3-1.1l0,0c3.9,1.3,7.3-1,11-1.4
			c31.3-3.3,57.8,16.1,63.8,46.9c0.1,0.7,0.2,1.4,1,1.7C541.4,470.7,541.4,476.6,541.4,482.4z M483.8,422.9
			c-28.6,0.2-50.3,22.5-50.1,51.3c0.2,27.3,23,49.3,50.7,49c27.8-0.3,50.4-23.1,50-50.5C534,444.9,511.5,422.7,483.8,422.9z"/>
		<path class="st10" d="M417.5,557.2c-6.4,21.9-20.4,36.3-42.6,42.4c-2,0.6-4.5-0.5-6.1,1.5c-5.5,0-11,0-16.5,0
			c-0.6-1.7-2.2-1-3.3-1.3c-23.5-6.3-38.3-21.1-43.9-44.8c-0.2-0.9,0-1.9-1.2-2.2c0-5.9,0-11.7,0-17.6c0.8-0.3,0.9-0.9,1.1-1.7
			c1.8-10.9,6.6-20.3,14-28.4c1.1-1.2,2.5-2.2,2.6-4c2.1-2,5-3,6.5-5.7c0.4,0,0.8,0.3,1.1,0.1c9.4-4.8,19-7.9,29.9-8.3
			c7.3-0.3,14.1,0,20.8,2.2C402.8,497.1,424.4,521.1,417.5,557.2z M362.9,593.9c30.7-0.9,50.3-27.6,48.9-52.9
			c-1.5-27.4-25-48.8-53.5-47.6c-26.4,1.1-48.1,24.9-47.1,51.7C312.4,573.3,335.4,595,362.9,593.9z"/>
		<path class="st11" d="M370,345.1c4.8,2.3,10.3,2.8,15.2,5.1c17.6,8.4,28.1,22.4,32.9,41c0.6,6.9,1.2,13.9,0.1,20.8
			c-6.4,37.7-47.4,58.6-81.9,42c-1.9-0.9-3.5-2.8-5.9-2.3l0.1,0.1c0.1-1.8-1.2-1-2.1-1.1c-0.4-1.2-1.5-1.2-2.3-1.6
			c0.5-1.2-0.2-1.5-1.2-1.7l0.1,0.1c-7.9-8-15-16.6-18.3-27.7c-0.7-2.5-0.6-5.4-2.6-7.4c0-6.6,0-13.2,0-19.8c1.7-0.9,1.5-2.8,2-4.3
			c6.2-21.4,20.1-35.1,41.5-41.2c1.6-0.5,3.8,0.2,4.9-1.8C358.3,345.1,364.2,345.1,370,345.1z M411.8,402.6
			c0-27.8-22.2-50.3-49.9-50.6c-27.6-0.3-50.7,22.6-50.8,50.4c-0.2,27.6,22.8,50.4,50.7,50.4C389.5,452.7,411.8,430.4,411.8,402.6z"
			/>
		<path class="st12" d="M304.1,412.1c2,2.1,1.9,4.9,2.6,7.4c3.3,11.1,10.4,19.7,18.3,27.7c-2.2-0.4-3,0.6-3.7,2.7
			c-5.1,17.1-5.1,34.1,0.4,51.1c-0.1,1.8-1.5,2.8-2.6,4c-7.4,8.1-12.2,17.5-14,28.4c-0.1,0.8-0.3,1.4-1.1,1.7
			C304.1,494.2,304.1,453.1,304.1,412.1z"/>
		<path class="st12" d="M352.4,345.1c-1.1,2-3.2,1.3-4.9,1.8c-21.5,6.1-35.3,19.8-41.5,41.2c-0.4,1.5-0.3,3.3-2,4.3
			c0-14.8,0.1-29.7-0.1-44.5c0-2.4,0.5-2.8,2.8-2.8C322,345.2,337.2,345.1,352.4,345.1z"/>
		<path class="st8" d="M304.1,552.8c1.1,0.3,1,1.3,1.2,2.2c5.6,23.8,20.4,38.6,43.9,44.8c1.1,0.3,2.7-0.4,3.3,1.3
			c-15.2,0-30.4-0.1-45.6,0.1c-2.4,0-2.8-0.5-2.8-2.8C304.2,583.2,304.1,568,304.1,552.8z"/>
		<path class="st12" d="M330.4,451.6c2.4-0.5,4,1.4,5.9,2.3c34.5,16.6,75.5-4.3,81.9-42c1.2-6.9,0.6-13.8-0.1-20.8
			c0.4,0.3,0.9,0.6,1.3,0.9c0.3,2.5,0.8,5.1,0.9,7.6c0.1,1.9,0.7,3,2.6,3.5c12.7,3.2,23.2,10.2,32.9,18.8c-0.4,1.9-2.2,2.3-3.5,3.2
			c-35.2,24.3-34.2,74.2,2.1,96.9c1.3,0.8,3.1,1.2,3.7,3.1c-7.7,8.2-16.5,15.2-27.2,18.6c-7.1,2.3-12.2,5.1-12.5,13.2
			c-0.3,0-0.5,0-0.8,0c6.9-36-14.8-60.1-37.5-67.7c-6.7-2.2-13.5-2.5-20.8-2.2c-10.9,0.4-20.5,3.5-29.9,8.3
			c-0.3,0.1-0.7-0.1-1.1-0.1c2.3-1.3,1.7-3.1,1.3-5.1c-2.2-11.4-2-22.7,0.9-34C330.9,454.7,331.7,453.1,330.4,451.6z"/>
		<path class="st13" d="M455.8,422.1c-9.6-8.6-20.2-15.6-32.9-18.8c-1.9-0.5-2.5-1.6-2.6-3.5c-0.1-2.5-0.6-5.1-0.9-7.6
			c17.7,2.4,31.9,11.3,44.3,23.6c0.6,0.6,1.3,1.3,1.9,1.9c0,0,0,0,0,0c-1.3-0.7-2.1-0.3-2.3,1.1c0,0,0.1-0.1,0.1-0.1
			c-1.3-0.1-2.7-0.4-3.5,1.1C458.6,420.6,457.2,421.3,455.8,422.1z"/>
		<path class="st13" d="M418.3,557.1c0.3-8.1,5.5-11,12.5-13.2c10.7-3.5,19.5-10.4,27.2-18.6c2.9,1.2,5.8,2.3,8.7,3.5
			c1.1,1.7-0.2,2.6-1.1,3.6c-11.9,13-26.5,21.3-43.5,25.6C420.8,558.3,419.2,559.1,418.3,557.1z"/>
		<path class="st12" d="M483.8,422.9c27.7-0.2,50.2,22,50.7,49.9c0.4,27.4-22.2,50.2-50,50.5c-27.7,0.3-50.5-21.8-50.7-49
			C433.5,445.5,455.2,423.1,483.8,422.9z M481,498.9c7.9,0,15.7,0,23.6,0c9.8,0,16.3-5.1,18.2-14c2.1-10.2-2.2-19.6-11-23.1
			c-1.9-0.8-2.8-1.9-3.8-3.5c-9.1-14.2-24.3-14.5-33.9-0.7c-1,1.5-1.7,3-4.1,2.9c-7.3-0.3-11.4,4.1-13.9,10.2
			c-0.8,2-1.5,3.2-3.7,4.1c-5.7,2.2-8.6,8.3-7.4,14.3c1.3,6.2,5.6,9.8,12,9.8C464.9,498.9,473,498.9,481,498.9z"/>
		<path class="st8" d="M459.9,419.8c0.8-1.5,2.2-1.2,3.5-1.1C462.8,420.6,461.4,420.2,459.9,419.8z"/>
		<path class="st8" d="M463.4,418.8c0.2-1.4,1-1.9,2.3-1.1C465.6,419.4,464.6,419.2,463.4,418.8z"/>
		<path class="st12" d="M362.9,593.9c-27.6,1-50.5-20.6-51.6-48.8c-1-26.8,20.6-50.6,47.1-51.7c28.5-1.2,52,20.1,53.5,47.6
			C413.2,566.4,393.7,593,362.9,593.9z M352.4,579.1c7.5,0.2,12-2.3,14.9-7.2c7.8-13.2,15.5-26.5,23.1-39.8
			c2.5-4.4,1.5-8.2-2.9-10.8c-6.8-4-13.5-8.1-20.5-11.7c-3.9-2-8.1-1.5-10.5,2.6c-7.9,13.4-15.6,26.8-23.3,40.4
			c-2.8,5-2.6,10.2,0.6,15.1C338.6,575,345.5,578.5,352.4,579.1z"/>
		<path class="st13" d="M330.4,451.6c1.3,1.5,0.5,3.1,0.1,4.6c-2.9,11.3-3.1,22.6-0.9,34c0.4,2,1,3.9-1.3,5.1
			c-1.5,2.7-4.4,3.7-6.5,5.7c-5.6-17-5.6-34-0.4-51.1c0.6-2.1,1.5-3.1,3.7-2.7c0,0-0.1-0.1-0.1-0.1c-0.2,1,0.5,1.4,1.2,1.7
			c0.9,0.4,2,0.5,2.3,1.6c0.1,1.4,1.2,1,2.1,1.1L330.4,451.6z"/>
		<path class="st12" d="M411.8,402.6c0,27.8-22.2,50.2-50,50.2c-27.9,0-50.9-22.8-50.7-50.4c0.2-27.8,23.3-50.7,50.8-50.4
			C389.5,352.3,411.8,374.8,411.8,402.6z M370.1,410.5c-2.9-2.7-2-6.9,0.5-7.2c7.1-0.8,4.4-5.6,4.9-9.2c0.3-2.5-0.1-4.2-3.4-4.2
			c-3.3,0-4.8-3.7-3.4-5.1c4.3-4.2,0.5-5.9-1.7-8.1c-2.2-2.2-3.8-5.3-7.8-1.5c-1.5,1.5-5,0.2-5.4-3.2c-0.7-5.8-5.1-2.5-7.7-3
			c-2-0.4-5-1.1-4.9,3c0.1,3.4-3.8,4.4-4.8,3.5c-5.7-5.1-7.3,1-10.3,3.3c-1.8,1.3-2.5,2.6-0.6,4.9c2.7,3.1,1.4,6-2.5,6.4
			c-4.3,0.4-3.3,3.4-3.1,5.6c0.3,2.5-2.4,6.4,3,7.3c3.8,0.6,4.9,3.8,2.3,6.9c-1.5,1.8-1,2.7,0.4,4c1.5,1.4,2.9,2.8,4.3,4.2
			c1.5,1.6,2.6,2.4,4.9,0.6c3.1-2.4,6-1.2,6.3,2.8c0.4,4.5,3.6,3.1,5.6,2.8c2.4-0.3,6.8,2.7,7-3c0.1-3.3,3.8-4.6,4.7-3.7
			c4.1,3.9,6.6,0.9,9.5-1.9c1,3.3-1.1,7.5,3.8,8.4c0.3,0,0.5,1.6,0.4,2.5c-0.6,4.7,1,6.3,6.2,5.8c1.4-0.1,2.4,0.4,3.2,1.5
			c2.8,3.9,5.5,3.9,8.3-0.1c0.8-1.2,1.8-1.6,3.2-1.4c4.9,0.6,6.6-1.1,5.8-5.9c-0.2-1.5,0.4-2.3,1.5-3.1c3.6-2.5,3.6-5.5,0.1-8.2
			c-1.2-0.9-2-1.9-1.6-3.6c1-4.2-1.4-6.9-5.4-5.9c-1.9,0.5-2.9,0.3-3.9-1.6c-1.9-3.4-5.8-3.4-7.9,0c-0.8,1.3-1.8,2.4-2.9,1.8
			C373.5,402.9,372.9,408,370.1,410.5z"/>
		<path class="st12" d="M330.5,451.7c-0.8-0.1-1.9,0.3-2.1-1.1C329.3,450.7,330.6,449.9,330.5,451.7z"/>
		<path class="st12" d="M326.1,449c-0.7-0.4-1.5-0.7-1.2-1.7C325.9,447.4,326.6,447.8,326.1,449z"/>
		<path class="st9" d="M481,498.9c-8,0-16.1,0.1-24.1,0c-6.4-0.1-10.7-3.6-12-9.8c-1.3-6,1.7-12.1,7.4-14.3c2.2-0.8,2.9-2.1,3.7-4.1
			c2.5-6.1,6.6-10.6,13.9-10.2c2.4,0.1,3-1.4,4.1-2.9c9.6-13.8,24.8-13.5,33.9,0.7c1,1.6,1.9,2.7,3.8,3.5c8.8,3.5,13.1,12.9,11,23.1
			c-1.8,8.9-8.4,14-18.2,14C496.7,498.9,488.9,498.9,481,498.9z M482.1,492.6C482.1,492.6,482.1,492.6,482.1,492.6
			c7.9,0,15.7,0.1,23.6,0c6.7-0.1,10.8-4.4,11.4-11.5c0.6-7.1-3-12.9-9.3-14c-2.6-0.4-3-2-3.9-3.8c-2.9-5.7-6.8-10-13.9-9.6
			c-7,0.5-10.4,5.3-12.9,11.1c-0.7,1.5-0.3,3.7-3.4,2.9c-8-2.1-11.4,0.2-12.6,8.3c-0.4,2.6-0.8,4.5-4.1,4.1
			c-4.4-0.5-5.9,2.4-5.9,6.1c0,4.1,1.9,6.4,6.4,6.3C465.6,492.5,473.9,492.6,482.1,492.6z"/>
		<path class="st10" d="M352.4,579.1c-6.9-0.7-13.8-4.2-18.5-11.4c-3.2-4.9-3.4-10.1-0.6-15.1c7.6-13.5,15.4-27,23.3-40.4
			c2.4-4.1,6.6-4.6,10.5-2.6c7,3.6,13.7,7.7,20.5,11.7c4.4,2.6,5.4,6.4,2.9,10.8c-7.6,13.3-15.3,26.6-23.1,39.8
			C364.4,576.8,359.9,579.3,352.4,579.1z M387.6,530.6c-0.4-1.8-1.8-2.4-3.1-3.1c-6.9-4-14-7.9-20.8-12.1c-3.5-2.2-5.1-1-6.8,2.1
			c-5.6,10-11.4,20-17.3,29.8c-1.9,3.2-1.2,4.7,1.8,6.4c7,3.8,14,7.8,20.8,12c3.2,2,4.7,1.1,6.4-1.9c5.7-10.2,11.6-20.2,17.4-30.3
			C386.7,532.4,387.1,531.4,387.6,530.6z M351.6,565.7c-0.3-2.1-1.4-3.3-3.6-3.3c-2.2,0.1-3.3,1.4-3.2,3.5c0.1,2.2,1.4,3.3,3.5,3.2
			C350.5,569.1,351.5,567.8,351.6,565.7z"/>
		<path class="st11" d="M370.1,410.5c2.7-2.5,3.4-7.6,8.8-5c1.1,0.5,2.2-0.6,2.9-1.8c2.1-3.4,6-3.5,7.9,0c1,1.9,2,2.1,3.9,1.6
			c3.9-1,6.4,1.8,5.4,5.9c-0.4,1.7,0.4,2.7,1.6,3.6c3.5,2.7,3.4,5.7-0.1,8.2c-1.1,0.8-1.8,1.7-1.5,3.1c0.8,4.8-0.9,6.5-5.8,5.9
			c-1.4-0.2-2.4,0.2-3.2,1.4c-2.8,4-5.5,4-8.3,0.1c-0.8-1.2-1.8-1.7-3.2-1.5c-5.1,0.5-6.7-1-6.2-5.8c0.1-0.8-0.1-2.4-0.4-2.5
			c-4.9-0.8-2.8-5-3.8-8.4c-3,2.8-5.5,5.8-9.5,1.9c-0.9-0.9-4.6,0.4-4.7,3.7c-0.2,5.7-4.6,2.6-7,3c-2,0.3-5.2,1.7-5.6-2.8
			c-0.3-4-3.2-5.2-6.3-2.8c-2.3,1.8-3.4,1.1-4.9-0.6c-1.4-1.5-2.8-2.9-4.3-4.2c-1.4-1.3-1.9-2.1-0.4-4c2.6-3.1,1.5-6.3-2.3-6.9
			c-5.4-0.8-2.7-4.7-3-7.3c-0.3-2.2-1.3-5.1,3.1-5.6c3.9-0.4,5.2-3.2,2.5-6.4c-2-2.3-1.2-3.5,0.6-4.9c3-2.2,4.7-8.3,10.3-3.3
			c1,0.9,4.9-0.1,4.8-3.5c-0.1-4.1,2.9-3.4,4.9-3c2.7,0.6,7-2.7,7.7,3c0.4,3.4,3.9,4.6,5.4,3.2c3.9-3.8,5.6-0.7,7.8,1.5
			c2.2,2.3,5.9,4,1.7,8.1c-1.4,1.4,0,5.1,3.4,5.1c3.3,0,3.7,1.7,3.4,4.2c-0.5,3.6,2.3,8.4-4.9,9.2
			C368.2,403.6,367.3,407.8,370.1,410.5z M347.6,406c5.2,0,9.4-4.1,9.5-9.3c0.2-5.5-3.9-9.8-9.4-9.8c-6.3-0.1-12.6,4.8-12.6,9.7
			C335.1,399.7,343.4,406,347.6,406z M386.4,412.1c-4.8,0-7.6,2.4-7.5,6.6c0.1,4.4,2.5,6.8,6.8,6.6c3.4-0.1,6.7-1.2,6.2-5.7
			C391.5,416.2,391.5,412.2,386.4,412.1z"/>
		<path class="st12" d="M482.1,492.6c-8.2,0-16.5-0.1-24.7,0c-4.5,0.1-6.5-2.2-6.4-6.3c0-3.7,1.5-6.6,5.9-6.1
			c3.4,0.4,3.7-1.4,4.1-4.1c1.3-8.1,4.7-10.4,12.6-8.3c3.1,0.8,2.7-1.5,3.4-2.9c2.6-5.8,5.9-10.6,12.9-11.1c7.1-0.5,11,3.9,13.9,9.6
			c0.9,1.7,1.3,3.3,3.9,3.8c6.3,1,9.9,6.9,9.3,14c-0.6,7.1-4.7,11.3-11.4,11.5C497.8,492.7,490,492.6,482.1,492.6
			C482.1,492.6,482.1,492.6,482.1,492.6z"/>
		<path class="st12" d="M387.6,530.6c-0.5,0.9-0.9,1.9-1.4,2.8c-5.8,10.1-11.7,20.2-17.4,30.3c-1.7,3-3.2,3.9-6.4,1.9
			c-6.8-4.2-13.8-8.2-20.8-12c-3-1.7-3.7-3.2-1.8-6.4c5.9-9.8,11.7-19.8,17.3-29.8c1.7-3.1,3.3-4.3,6.8-2.1
			c6.8,4.2,13.8,8.1,20.8,12.1C385.8,528.2,387.1,528.7,387.6,530.6z"/>
		<path class="st12" d="M351.6,565.7c-0.1,2.1-1.1,3.4-3.3,3.5c-2.1,0.1-3.4-1.1-3.5-3.2c-0.1-2.2,1.1-3.4,3.2-3.5
			C350.2,562.3,351.3,563.6,351.6,565.7z"/>
		<path class="st12" d="M347.6,406c-4.2,0-12.5-6.3-12.5-9.4c0-4.9,6.3-9.8,12.6-9.7c5.5,0.1,9.6,4.3,9.4,9.8
			C357,401.9,352.7,406,347.6,406z"/>
		<path class="st12" d="M386.4,412.1c5.1,0.1,5.1,4.1,5.5,7.5c0.5,4.4-2.8,5.6-6.2,5.7c-4.3,0.1-6.7-2.2-6.8-6.6
			C378.8,414.5,381.6,412,386.4,412.1z"/>
	</g>
</g>
<g>
	<g>
		<path class="st14" d="M1377.9,136.5c-5,0-9.9,0-14.9,0c-0.7-0.8-1.8-0.6-2.7-0.8c-13.4-2.5-24.8-8.6-34-18.8
			c-12.3-13.7-17.5-29.8-15.2-48c3.1-25.1,21-44.9,45.4-50.9c2.1-0.5,4.4-0.6,6.4-1.6c5,0,9.9,0,14.9,0c0.4,0.5,1,0.4,1.5,0.5
			c24.4,3.7,43.8,21.4,49.7,45.3c0.6,2.6,1.1,5.3,1.6,7.9c0,4.6,0,9.3,0,13.9c-0.8,1-0.7,2.3-0.9,3.4c-5.4,24.2-20,39.9-43.8,47
			C1383.3,135.3,1380.6,135.8,1377.9,136.5z M1370.5,130.7c30.1-0.1,54-23.9,54.3-53.5c0.3-30.5-24-54.8-54.2-54.9
			c-29.7,0-54.1,24.4-54.1,54.3C1316.4,106.2,1340.9,130.7,1370.5,130.7z"/>
		<path class="st15" d="M1363,16.5c-2,1-4.3,1-6.4,1.6c-24.4,6-42.3,25.8-45.4,50.9c-2.3,18.2,2.9,34.3,15.2,48
			c9.2,10.1,20.6,16.3,34,18.8c0.9,0.2,2,0,2.7,0.8c-17,0-34,0-51.1,0c-1.3,0-1.8-0.1-1.8-1.6c0.1-38.9,0.1-77.8,0-116.8
			c0-1.6,0.5-1.7,1.8-1.6C1329,16.5,1346,16.5,1363,16.5z"/>
		<path class="st15" d="M1430.7,70.2c-0.5-2.6-1-5.3-1.6-7.9c-5.9-23.9-25.3-41.6-49.7-45.3c-0.5-0.1-1.1,0-1.5-0.5
			c17,0,34.1,0,51.1,0c1.4,0,1.7,0.3,1.7,1.7C1430.7,35.5,1430.7,52.9,1430.7,70.2z"/>
		<path class="st15" d="M1377.9,136.5c2.7-0.6,5.4-1.1,8.1-1.9c23.8-7.1,38.4-22.8,43.8-47c0.3-1.1,0.1-2.4,0.9-3.4
			c0,16.9,0,33.8,0,50.6c0,1.4-0.3,1.7-1.7,1.7C1412,136.5,1394.9,136.5,1377.9,136.5z"/>
		<path class="st15" d="M1370.5,130.7c-29.6,0-54.1-24.5-54-54.1c0-29.9,24.4-54.3,54.1-54.3c30.2,0,54.5,24.4,54.2,54.9
			C1424.5,106.7,1400.6,130.6,1370.5,130.7z M1370.5,110.6c1.7,2.3,3.8,3.3,6.4,2.2c2.6-1.1,3-3.4,2.9-6c-0.1-6.3,0-12.6-0.1-18.9
			c0-1.5,0.1-2.3,2-2.3c2.4,0,4.2-1.8,4.3-4.3c0.1-6.2,0.1-12.3,0-18.5c0-2.3-1.9-4-4.1-4.2c-4.1-0.4-8-0.3-10,4.2
			c0,0.1-0.1,0.1-0.1,0.2c-0.8,1.4-1.6,1.4-2.3,0c-2-4-5.3-4.9-9.5-4.4c-2.8,0.3-4.7,1.5-4.8,4.3c-0.3,6.2-0.4,12.5,0,18.7
			c0.2,2.5,1.9,4,4.3,4c1.7,0,2,0.7,2,2.1c-0.1,6.6,0,13.3,0,19.9c0,2.5,0.8,4.5,3.3,5.3C1367,113.7,1369,112.9,1370.5,110.6z
			 M1394.1,100.7c1.3,1.9,3,2.8,5,1.9c2.2-0.8,2.4-2.7,2.3-4.8c-0.1-4.4,0-8.8,0-13.2c0-1.5,0.1-2.7,1.7-3.4c1.5-0.7,2-2.2,2.1-3.8
			c0-4.6,0.1-9.3,0-13.9c0-2.6-1.8-4.6-4.2-4.7c-4.1-0.2-8.2,0-12.5,0c0.8,1.8,1.5,3.3,1.4,5c-0.1,5.6,0,11.2,0,16.8
			c0,1.5-0.1,3.1-1.1,4.1c-2.3,2.1-2,4.7-2,7.3c0,2,0.1,4,0,6c-0.1,2,0.2,3.9,2.4,4.7C1391.2,103.4,1392.8,102.6,1394.1,100.7z
			 M1347.3,100.7c1.2,1.9,2.9,2.7,4.9,1.9c2.2-0.8,2.4-2.7,2.4-4.8c-0.1-2.8-0.1-5.6,0-8.4c0-1.4-0.2-2.5-1.3-3.6
			c-1.4-1.3-1.9-3.1-1.9-5c0-3.8-0.1-7.7,0-11.5c0.1-3.5-0.7-7.2,1.3-10.6c-4,0-7.8-0.1-11.5,0c-3,0.1-5,2-5,5c-0.1,4.5,0,9,0,13.4
			c0,1.9,0.7,3.5,2.4,4.4c1.2,0.6,1.3,1.3,1.3,2.4c0,5,0,9.9,0,14.9c0,1.8,0.7,3.2,2.3,3.8c1.6,0.6,3.1,0.3,4.3-1.1
			C1346.8,101.3,1347,101.1,1347.3,100.7z M1378.4,47.7c0-4.5-3.3-7.9-7.8-7.9c-4.4,0-7.7,3.3-7.8,7.7c-0.1,4.4,3.4,8,7.8,8
			C1374.9,55.4,1378.3,52,1378.4,47.7z M1353.6,49.8c0-3.5-3-6.4-6.4-6.4c-3.5,0-6.3,2.9-6.3,6.5c0,3.6,2.8,6.3,6.4,6.3
			C1350.9,56.2,1353.7,53.4,1353.6,49.8z M1400.4,49.9c0-3.6-2.8-6.5-6.3-6.5c-3.5,0-6.4,2.9-6.5,6.4c0,3.6,2.7,6.4,6.3,6.4
			C1397.6,56.3,1400.4,53.5,1400.4,49.9z"/>
		<path class="st16" d="M1370.5,110.6c-1.6,2.3-3.6,3.1-6,2.3c-2.5-0.8-3.3-2.8-3.3-5.3c0-6.6,0-13.3,0-19.9c0-1.5-0.3-2.1-2-2.1
			c-2.4,0-4.1-1.5-4.3-4c-0.4-6.2-0.4-12.5,0-18.7c0.2-2.8,2-4,4.8-4.3c4.2-0.5,7.5,0.4,9.5,4.4c0.7,1.4,1.5,1.4,2.3,0
			c0-0.1,0.1-0.1,0.1-0.2c2-4.5,5.9-4.6,10-4.2c2.2,0.2,4.1,1.9,4.1,4.2c0.1,6.2,0.1,12.3,0,18.5c0,2.5-1.8,4.3-4.3,4.3
			c-1.9,0-2,0.8-2,2.3c0.1,6.3,0,12.6,0.1,18.9c0,2.6-0.3,4.9-2.9,6C1374.3,113.9,1372.2,112.9,1370.5,110.6z"/>
		<path class="st16" d="M1394.1,100.7c-1.3,1.9-2.9,2.7-4.9,2c-2.2-0.8-2.4-2.7-2.4-4.7c0.1-2,0-4,0-6c0-2.6-0.4-5.2,2-7.3
			c1-0.9,1.1-2.6,1.1-4.1c0-5.6,0-11.2,0-16.8c0-1.7-0.6-3.2-1.4-5c4.3,0,8.4-0.1,12.5,0c2.4,0.1,4.2,2.1,4.2,4.7
			c0.1,4.6,0.1,9.3,0,13.9c0,1.6-0.6,3.1-2.1,3.8c-1.7,0.8-1.7,1.9-1.7,3.4c0.1,4.4,0,8.8,0,13.2c0,2-0.2,3.9-2.3,4.8
			C1397,103.4,1395.4,102.6,1394.1,100.7z"/>
		<path class="st16" d="M1347.3,100.7c-0.3,0.3-0.5,0.6-0.7,0.8c-1.2,1.4-2.7,1.7-4.3,1.1c-1.7-0.6-2.3-2-2.3-3.8c0-5,0-9.9,0-14.9
			c0-1.1-0.1-1.9-1.3-2.4c-1.7-0.8-2.4-2.5-2.4-4.4c0-4.5-0.1-9,0-13.4c0.1-3,2-4.9,5-5c3.8-0.1,7.5,0,11.5,0
			c-2.1,3.5-1.2,7.1-1.3,10.6c-0.1,3.8,0,7.7,0,11.5c0,1.9,0.5,3.7,1.9,5c1.1,1.1,1.4,2.2,1.3,3.6c-0.1,2.8-0.1,5.6,0,8.4
			c0,2-0.2,3.9-2.4,4.8C1350.2,103.4,1348.6,102.6,1347.3,100.7z"/>
		<path class="st16" d="M1378.4,47.7c0,4.3-3.5,7.7-7.8,7.7c-4.4,0-7.9-3.6-7.8-8c0.1-4.4,3.4-7.7,7.8-7.7
			C1375,39.8,1378.4,43.2,1378.4,47.7z"/>
		<path class="st16" d="M1353.6,49.8c0,3.6-2.8,6.4-6.3,6.4c-3.6,0-6.4-2.7-6.4-6.3c0-3.5,2.8-6.4,6.3-6.5
			C1350.7,43.4,1353.6,46.3,1353.6,49.8z"/>
		<path class="st16" d="M1400.4,49.9c0,3.6-2.8,6.3-6.4,6.3c-3.6,0-6.3-2.9-6.3-6.4c0-3.5,3-6.4,6.5-6.4
			C1397.7,43.5,1400.5,46.4,1400.4,49.9z"/>
	</g>
</g>
<g class="st7">
	<path class="st17" d="M229.5,190c-40.6,0-73.5,32.9-73.5,73.5s32.9,73.5,73.5,73.5s73.5-32.9,73.5-73.5S270.1,190,229.5,190z
		 M229.5,326.2c-34.6,0-62.7-28.1-62.7-62.7c0-34.6,28.1-62.7,62.7-62.7c34.6,0,62.7,28.1,62.7,62.7
		C292.2,298.1,264.1,326.2,229.5,326.2L229.5,326.2z"/>
	<path class="st17" d="M231.3,283.7l-1.8,0.9l-1.8-0.9l-3.7-1.9l-15.7-7.8v7.8c0,7.8,7.2,15.5,21.2,15.5s21.2-7.7,21.2-15.5V274
		l-15.7,7.8L231.3,283.7z"/>
	<path class="st17" d="M229.5,233l-47,23.5l47,23.5l26-13l-25.6-12.8c-1-0.5-1.4-1.7-0.9-2.7c0.4-0.9,1.4-1.3,2.3-1.1l25,12.5
		c0.7,0.3,1.1,1.1,1.1,1.8v27.4c0,1.1,0.9,2,2,2c1.1,0,2-0.9,2-2V264l15.1-7.5L229.5,233z"/>
</g>
<g class="st7">
	<g>
		<path d="M1211.5,325.8c-11.3,0-22.7-0.3-34,0.1c-9.6,0.3-15.9-6.7-15.7-15.7c0.4-18.5,0.1-37.1,0.1-55.7c0-0.9,0-1.8,0-2.7
			c0.1-1.9,1.2-2.8,3-2.9c1.9-0.1,3.2,0.8,3.5,2.8c0.2,1,0.1,2,0.1,3c0,18.6,0,37.1,0,55.7c0,6.1,2.7,8.8,8.7,8.8
			c22.9,0,45.8,0,68.7,0c6.1,0,8.8-2.7,8.8-8.7c0-18.7,0-37.3,0-56c0-1-0.1-2,0.1-3c0.4-1.8,1.6-2.6,3.4-2.5c1.8,0.1,2.9,1,3.1,2.9
			c0.1,0.8,0.1,1.6,0.1,2.3c0,18.8,0,37.6,0,56.3c0,9.8-5.4,15.3-15.2,15.4C1234.6,325.8,1223.1,325.8,1211.5,325.8z"/>
		<path d="M1211.5,183.6c4.3-0.2,7.8,1.5,10.8,4.4c19.6,19.2,39.1,38.5,58.7,57.7c1.8,1.8,2.7,3.8,0.7,5.7c-2,1.9-3.8,0.7-5.5-0.9
			c-19.1-18.8-38.2-37.5-57.3-56.2c-5.6-5.5-9.1-5.5-14.7,0.1c-18.7,18.4-37.4,36.7-56.1,55.1c-0.8,0.8-1.6,1.6-2.5,2.2
			c-1.4,1-3,1-4.2-0.2c-1.3-1.2-1.2-2.8-0.4-4.3c0.4-0.7,1-1.2,1.6-1.7c19.3-19,38.6-38,57.9-57
			C1203.7,185.4,1207.1,183.4,1211.5,183.6z"/>
	</g>
</g>
<g class="st6">
	<g>
		<path d="M1594.7,222.4c-0.7,4.4-1.3,8.8-2.2,13.1c-2.9,14.7-8.6,28.5-16.1,41.4c-25.6,43.4-60.9,76.9-104.5,101.8
			c-3.6,2.1-7.5,3.8-11.2,5.7c-2.1,1.1-4,1-6.1,0c-21.6-10.4-41.1-23.9-59.1-39.7c-18.5-16.2-35-34.4-48.6-54.9
			c-11.2-16.9-20-34.8-24.3-54.9c-7.2-33.6,7.7-69.2,36.9-87.1c30.6-18.8,67.9-16.2,95.7,6.6c1.9,1.5,3,1.6,4.9,0
			c15-12.7,32.6-19.4,52.1-19c33.2,0.6,57.9,15.9,73.6,45.3c5.1,9.6,7.8,20,8.4,30.9c0,0.9,0.3,1.7,0.5,2.6
			C1594.7,217,1594.7,219.7,1594.7,222.4z M1419.3,274.9c0.2,0,0.4,0,0.6,0c0.1-0.4,0.3-0.8,0.4-1.2c1.4-6.3,2.9-12.7,4.2-19
			c1.1-5.2,1.8-5.7,7.2-5.7c16.1,0,32.1,0,48.2,0.1c2.2,0,3.1-0.8,3.6-2.8c2.4-10.2,5-20.4,7.6-30.6c0.6-2.4,1.6-4.5,4.5-4.5
			c2.9,0,3.9,2,4.5,4.4c3.3,14.2,6.7,28.4,10.1,42.6c1.3,5.6,2.6,11.2,4,16.7c1-0.2,0.9-0.9,1-1.3c1.4-6.2,2.8-12.3,4.2-18.5
			c1.3-5.8,1.7-6.1,7.7-6.1c16.8,0,33.5,0,50.3,0c1.4,0,2.7,0.2,3.4-1.7c2.5-7.4,4.4-14.9,5-22.6c1.6-19.2-3.3-36.6-15-52.1
			c-21.8-28.8-63.9-37.2-94.8-18.7c-5.2,3.1-9.9,6.7-14.3,10.8c-2.9,2.7-4.7,2.6-7.7,0c-1.3-1.1-2.5-2.3-3.8-3.4
			c-18.3-15-39.2-20.2-62.3-15.6c-16.4,3.2-29.9,11.6-40.8,24.3c-9.9,11.6-15.6,25-17.1,40.2c-1.3,12.8,0.9,25.2,5.1,37.3
			c0.6,1.8,1.8,1.7,3.1,1.7c15.8,0,31.6,0,47.4,0c2.1,0,2.9-0.7,3.4-2.7c2.4-10.2,5-20.4,7.6-30.6c0.8-3.3,2.2-4.7,4.6-4.6
			c2.9,0.1,3.8,2.1,4.4,4.5c2.4,10.3,4.9,20.6,7.3,30.9C1414.8,256.1,1417,265.5,1419.3,274.9z M1401,235c-0.2,0-0.4,0-0.6,0
			c-1.4,5.7-2.9,11.4-4.3,17c-1.2,4.9-2,5.6-7.2,5.6c-15.7,0-31.4,0-47.1,0c-3,0-3,0-1.7,2.9c2.7,6,5.8,11.8,9.3,17.4
			c14.3,23.1,32,43.2,52.5,61c16.4,14.3,34.1,26.7,53.6,36.4c1.3,0.7,2.4,1,4,0.2c7.5-3.9,14.9-8,22-12.6
			c27.9-18.2,52.1-40.4,72.2-67c8.5-11.2,16-23.1,21.9-36c0.9-1.9,0.6-2.4-1.5-2.4c-14.7,0.1-29.4,0.1-44.1,0
			c-2.1,0-2.7,0.8-3.1,2.6c-1.4,6.7-2.9,13.4-4.4,20.1c-1.2,5.5-2.4,10.9-3.7,16.4c-0.5,2.2-1.9,3.4-4.2,3.4c-2.3,0-3.6-1.3-4.2-3.4
			c-0.2-0.6-0.3-1.2-0.5-1.8c-3.4-14.7-6.9-29.5-10.3-44.2c-1.2-5.2-2.5-10.5-3.8-15.7c-2,5.7-3.5,11.3-4.9,17
			c-1.3,5-2.1,5.7-7.1,5.7c-16,0-31.9,0.1-47.9-0.1c-2.7,0-3.4,0.9-3.9,3.3c-2.4,11.6-5,23.1-7.6,34.7c-0.5,2.4-1.4,4.5-4.4,4.6
			c-2.5,0.1-3.8-1.2-4.6-4.6c-3.4-14.2-6.7-28.4-10.1-42.6C1403.9,246.9,1402.4,240.9,1401,235z"/>
	</g>
</g>
<g>
	<g>
		<path class="st18" d="M59.5,640.1c-2.4-5.9-4.8-11.7-7.2-17.6c0.5-0.4,0.4-0.8,0.2-1.3c-9-37.7,5.6-73.5,38.4-94.5
			c1.1-0.7,3.6,0.1,3.5-2.5c5.6-2.3,11.3-4.6,16.9-6.9c0.4,0.5,0.8,0.4,1.3,0.2c33.4-9.6,70,2.8,90.8,30.7c2.7,3.7,5.2,7.5,7.9,11.3
			c2.2,5.4,4.4,10.8,6.6,16.2c-0.5,0.4-0.3,0.9-0.2,1.4c9.3,35-3.3,70.9-32.4,92.1c-3.5,2.6-7.3,4.7-11,7.1
			c-5.2,2.1-10.3,4.2-15.5,6.3c-0.4-0.5-0.8-0.4-1.3-0.2c-34.7,8.2-63.8-1.2-87.6-27.6C65.8,650.3,63.2,644.8,59.5,640.1z
			 M63.4,636.3c6.4,15.2,21.8,30.4,43.7,38.9c22.1,8.5,44.3,7,64.8-3.3c17.8-8.9,31.1-23.5,38.4-42.7c8.4-22.2,7.6-44.1-3-65.4
			c-18.8-37.9-64.8-55.1-104.3-37.7C61.8,544.3,44.8,591.6,63.4,636.3z"/>
		<path class="st15" d="M174.3,676.3c3.7-2.4,7.5-4.5,11-7.1c29.1-21.2,41.7-57.1,32.4-92.1c-0.1-0.5-0.2-1,0.2-1.4
			c9.3,22.9,18.6,45.8,28,68.6c0.9,2.1,0.6,2.7-1.5,3.5C220.9,657.3,197.6,666.8,174.3,676.3z"/>
		<path class="st15" d="M211.3,559.5c-2.6-3.8-5.1-7.6-7.9-11.3c-20.8-27.9-57.4-40.2-90.8-30.7c-0.5,0.1-1,0.2-1.3-0.2
			c22.9-9.3,45.8-18.6,68.6-28c2.1-0.9,2.7-0.6,3.5,1.5C192.7,513.8,202,536.6,211.3,559.5z"/>
		<path class="st15" d="M94.4,524.2c0.1,2.5-2.3,1.7-3.5,2.5c-32.8,21-47.4,56.9-38.4,94.5c0.1,0.5,0.2,1-0.2,1.3
			c-9.1-22.4-18.1-44.7-27.3-67c-0.9-2.2-0.6-2.9,1.6-3.8C49.2,542.6,71.8,533.4,94.4,524.2z"/>
		<path class="st15" d="M59.5,640.1c3.7,4.7,6.3,10.2,10.4,14.7c23.8,26.4,52.9,35.8,87.6,27.6c0.5-0.1,1-0.2,1.3,0.2
			c-22.6,9.2-45.2,18.3-67.8,27.6c-2.2,0.9-2.9,0.6-3.8-1.6C78,685.7,68.7,662.9,59.5,640.1z"/>
		<path class="st15" d="M63.4,636.3c-18.6-44.6-1.6-92,39.6-110.1c39.5-17.4,85.4-0.2,104.3,37.7c10.6,21.3,11.4,43.2,3,65.4
			c-7.3,19.2-20.5,33.8-38.4,42.7c-20.6,10.3-42.8,11.8-64.8,3.3C85.2,666.7,69.8,651.5,63.4,636.3z M155.8,559.1
			c-5.9,2.4-9.1,5.7-11.1,10.1c-2.3,5.2-4.5,10.5-6.7,15.7c-0.3,0.8-1,1.4-0.5,2.4c2,3.6,1.2,5.1-2.8,5c-2.4-0.1-4.2,0.2-4.8,3
			c-0.2,0.8-0.4,2-1.7,1.2c-1.1-0.6-3.4-0.5-3-2c0.5-1.9-0.4-2.1-1.6-2.6c-5.5-2.3-10.9-4.8-16.5-6.9c-9.2-3.5-19.2,0.8-23.1,9.7
			c-4,9-0.2,19.4,8.7,23.8c3.4,1.7,6.9,3.5,10.5,4.4c3.2,0.7,6,6,9.9,1.2c3.3,1.5,8.2,1.7,9.6,4.7c2.5,5.3,7.7,4.8,11.6,7
			c2.7,1.6,6.1,2.4,8.9,3.8c4.9,2.5,7.5,2.2,9.7-3c0.6-1.5,1.1-2.3,3.1-2.2c3,0.1,4.9-1.7,5.6-5c0.7-3.1,1.9-6.3,3.6-8.9
			c2-3.1,2.1-5.6-0.5-8c-0.8-0.8-1.4-1.3-0.7-2.5c1.8-3,1.9-6.8,4.7-9.2c0.1,0,0.2,0,0.3,0.1c1.8,1.1,2.1-0.5,2.5-1.6
			c2.3-5.5,4.8-10.9,6.9-16.5c2.7-7.3,1.2-14.1-4.4-19.5C168.5,557.9,161.7,556.8,155.8,559.1z"/>
		<path class="st18" d="M155.8,559.1c6-2.2,12.7-1.1,18.3,4.2c5.6,5.4,7.1,12.1,4.4,19.5c-2,5.6-4.6,11-6.9,16.5
			c-0.5,1.1-0.7,2.6-2.5,1.6c-0.1-0.1-0.3-0.1-0.3-0.1c-2.8,2.4-2.9,6.2-4.7,9.2c-0.7,1.1-0.1,1.7,0.7,2.5c2.6,2.5,2.5,4.9,0.5,8
			c-1.7,2.6-2.9,5.8-3.6,8.9c-0.8,3.3-2.6,5.1-5.6,5c-2.1-0.1-2.5,0.7-3.1,2.2c-2.2,5.2-4.8,5.5-9.7,3c-2.8-1.4-6.2-2.2-8.9-3.8
			c-3.8-2.2-9-1.6-11.6-7c-1.4-2.9-6.3-3.2-9.6-4.7c-3.8,4.8-6.7-0.5-9.9-1.2c-3.6-0.8-7.1-2.7-10.5-4.4c-9-4.4-12.7-14.8-8.7-23.8
			c3.9-8.9,14-13.2,23.1-9.7c5.6,2.1,11,4.6,16.5,6.9c1.2,0.5,2.1,0.7,1.6,2.6c-0.4,1.5,1.9,1.4,3,2c1.3,0.7,1.5-0.5,1.7-1.2
			c0.6-2.7,2.4-3,4.8-3c4,0.1,4.8-1.4,2.8-5c-0.6-1,0.2-1.7,0.5-2.4c2.2-5.3,4.4-10.5,6.7-15.7C146.6,564.7,149.9,561.5,155.8,559.1
			z M87.2,607.6c1,2.7,2.8,4.9,5.2,6.4c5,3.1,10.6,4.7,15.9,7.1c1.1,0.5,1.5,0,1.9-0.9c3.3-7.9,6.6-15.8,10-23.7
			c0.5-1.1,0.5-1.8-0.8-2.3c-5-2-10-4.4-15.1-6c-5.7-1.8-10.8,0-14.6,4.6C86,597.1,85.2,602.2,87.2,607.6z M132.3,614.8
			c-2.4,1.1-5,1-7.6,0.2c-2-0.6-2.6-1.4-1.6-3.5c1.5-2.9,2.5-6.1,3.9-9c0.9-1.8,0.1-2.4-1.4-2.9c-1.4-0.5-2.4-1-3.1,1
			c-1.6,4.1-3.4,8.2-5.1,12.3c-3.3,7.8-3.3,7.8,4.6,10.9c1.5,0.6,2.3,0.9,3.2-0.9c1.2-2.4,3.7-3.5,6.1-2.2c2.2,1.2,4.6,1.8,6.7,2.9
			c5.3,2.9,11.1,4.4,16.6,6.7c1,0.4,2.2,1.3,2.9-0.2c0.8-1.7-0.7-2.2-1.8-2.7c-3.6-1.6-7.2-3-10.8-4.6c-1.1-0.5-2.6-1-2-2.7
			c0.7-1.9,2.1-1.4,3.4-0.8c3.6,1.5,7.2,3.1,10.8,4.6c1.2,0.5,2.6,1.1,3.2-0.6c0.6-1.6-1-1.8-1.9-2.2c-3.4-1.5-6.7-2.9-10.1-4.3
			c-1.5-0.6-2.9-1.3-2.2-3.3c0.8-2.2,2.3-0.7,3.4-0.3c3.4,1.3,6.8,2.9,10.2,4.2c1.1,0.4,2.5,1.6,3.2-0.2c0.7-1.6-0.8-2.2-1.9-2.7
			c-6.1-2.6-12.2-5-18.2-7.7c-1.9-0.8-2.6-0.3-3.4,1.4C138,611.2,135.7,613.5,132.3,614.8z M156.1,563c-5.4,1.9-7.6,6.3-9.5,11.1
			c-0.8,1.9-0.4,2.6,1.4,3.3c6.2,2.5,12.3,5.2,18.5,7.8c6.6,2.8,6.7,2.8,8.8-4.3c1.7-5.8,0.5-11-4.1-15.1
			C166.8,561.8,161.7,561,156.1,563z M142.9,589.6c-1.3,4.2-2.6,8-7.9,6.7c-1.5-0.4-1.8,1.1-2.2,2.1c-1.5,3.6-3.1,7.2-4.6,10.9
			c-0.3,0.7-1.2,1.6-0.4,2.4c0.7,0.7,1.7,0.2,2.5,0c3.5-0.9,5.5-3.7,6.5-6.9c1.1-3.5,2.7-3.7,5.6-2.2c2.9,1.5,6,2.6,9.1,3.9
			c9.3,3.9,9.2,3.9,12.4-5.8c0.4-1.3,0.4-2-1-2.6C156.3,595.4,149.7,592.5,142.9,589.6z M144.8,577.5c-0.8,2.2-1.3,4.2-2.1,6
			c-0.6,1.4-0.3,1.9,1.1,2.5c7.8,3.2,15.6,6.5,23.4,9.9c1.5,0.7,2,0.1,2.4-1.2c0.4-1.2,0.9-2.4,1.5-3.5c1-1.7,0.4-2.3-1.3-2.9
			c-7.6-3.1-15.2-6.4-22.7-9.6C146.5,578.6,145.9,578.2,144.8,577.5z M129.3,629.3c0.7-1.4,1.9-2.8,1.5-4.6
			c-0.1-0.7-1.3-1.1-1.9-0.5c-1.3,1.2-2.2,2.8-1.8,4.6C127.4,629.6,128.3,629.6,129.3,629.3z M135.4,632.1c1.1-1.2,1.9-2.6,1.8-4.3
			c-0.1-1-1.1-1.7-1.9-1.1c-1.5,1.1-2.2,2.8-1.9,4.6C133.5,632,134.5,632.3,135.4,632.1z M148.3,637.4c0.6-1.5,2.1-2.8,1.5-4.7
			c-0.2-0.8-1.3-1.1-1.9-0.5c-1.4,1.2-2.2,2.8-1.7,4.6C146.3,637.5,147.3,637.6,148.3,637.4z M143.6,630.3c-0.4-0.7-1.1-1.3-1.8-0.9
			c-1.6,0.9-2.1,2.5-2,4.2c0.1,1,1,1.6,1.9,1C143.1,633.6,143.4,632,143.6,630.3z"/>
		<path class="st15" d="M87.2,607.6c-2-5.4-1.3-10.5,2.4-14.9c3.8-4.6,8.9-6.3,14.6-4.6c5.2,1.6,10.1,4,15.1,6
			c1.3,0.5,1.3,1.2,0.8,2.3c-3.4,7.9-6.7,15.8-10,23.7c-0.4,1-0.8,1.5-1.9,0.9c-5.3-2.4-10.9-4.1-15.9-7.1
			C90,612.5,88.3,610.3,87.2,607.6z M109.1,608.5c-1.2-2.8-4.2-4.1-6.5-2.9c-2.6,1.3-3.6,3.5-2.4,6.3c1.2,2.7,3.5,3.7,6.2,2.5
			C109.1,613.2,109.8,610.9,109.1,608.5z"/>
		<path class="st15" d="M132.3,614.8c3.3-1.3,5.7-3.6,7.1-6.6c0.8-1.7,1.5-2.2,3.4-1.4c6,2.7,12.1,5.2,18.2,7.7
			c1.2,0.5,2.6,1,1.9,2.7c-0.8,1.8-2.2,0.6-3.2,0.2c-3.4-1.4-6.7-2.9-10.2-4.2c-1.1-0.4-2.6-1.9-3.4,0.3c-0.7,1.9,0.6,2.6,2.2,3.3
			c3.4,1.4,6.8,2.8,10.1,4.3c1,0.4,2.5,0.7,1.9,2.2c-0.6,1.7-2,1.1-3.2,0.6c-3.6-1.5-7.2-3.1-10.8-4.6c-1.3-0.6-2.8-1.1-3.4,0.8
			c-0.6,1.7,0.8,2.2,2,2.7c3.6,1.5,7.2,3,10.8,4.6c1.1,0.5,2.6,0.9,1.8,2.7c-0.7,1.6-2,0.6-2.9,0.2c-5.5-2.3-11.3-3.8-16.6-6.7
			c-2.1-1.1-4.5-1.7-6.7-2.9c-2.4-1.3-4.9-0.2-6.1,2.2c-0.9,1.8-1.7,1.5-3.2,0.9c-7.9-3.2-7.9-3.1-4.6-10.9
			c1.7-4.1,3.6-8.1,5.1-12.3c0.8-2,1.7-1.5,3.1-1c1.5,0.6,2.3,1.1,1.4,2.9c-1.4,3-2.5,6.1-3.9,9c-1,2.1-0.4,2.9,1.6,3.5
			C127.3,615.8,129.9,615.9,132.3,614.8z"/>
		<path class="st15" d="M156.1,563c5.6-2.1,10.6-1.2,15.1,2.7c4.6,4.1,5.8,9.3,4.1,15.1c-2.1,7.1-2.2,7.1-8.8,4.3
			c-6.2-2.6-12.3-5.2-18.5-7.8c-1.8-0.7-2.2-1.4-1.4-3.3C148.6,569.3,150.8,564.9,156.1,563z"/>
		<path class="st15" d="M142.9,589.6c6.8,2.9,13.4,5.8,20,8.6c1.4,0.6,1.4,1.2,1,2.6c-3.2,9.7-3.2,9.7-12.4,5.8
			c-3-1.3-6.2-2.4-9.1-3.9c-2.9-1.5-4.5-1.3-5.6,2.2c-1,3.2-2.9,5.9-6.5,6.9c-0.8,0.2-1.8,0.8-2.5,0c-0.8-0.8,0.1-1.6,0.4-2.4
			c1.5-3.6,3-7.2,4.6-10.9c0.4-1,0.6-2.5,2.2-2.1C140.3,597.5,141.6,593.7,142.9,589.6z"/>
		<path class="st15" d="M144.8,577.5c1.2,0.7,1.7,1,2.3,1.3c7.6,3.2,15.1,6.5,22.7,9.6c1.6,0.7,2.2,1.3,1.3,2.9
			c-0.6,1.1-1.1,2.3-1.5,3.5c-0.5,1.2-0.9,1.8-2.4,1.2c-7.8-3.4-15.6-6.7-23.4-9.9c-1.4-0.6-1.7-1.1-1.1-2.5
			C143.5,581.7,144,579.8,144.8,577.5z"/>
		<path class="st15" d="M129.3,629.3c-1,0.3-2,0.4-2.1-0.5c-0.4-1.8,0.5-3.4,1.8-4.6c0.6-0.5,1.7-0.2,1.9,0.5
			C131.2,626.5,130,627.9,129.3,629.3z"/>
		<path class="st15" d="M135.4,632.1c-0.9,0.2-1.9,0-2-0.8c-0.3-1.8,0.4-3.5,1.9-4.6c0.8-0.6,1.9,0.1,1.9,1.1
			C137.3,629.5,136.5,630.9,135.4,632.1z"/>
		<path class="st15" d="M148.3,637.4c-1,0.3-2,0.1-2.2-0.6c-0.5-1.9,0.4-3.4,1.7-4.6c0.6-0.5,1.7-0.2,1.9,0.5
			C150.4,634.6,148.9,635.9,148.3,637.4z"/>
		<path class="st15" d="M143.6,630.3c-0.1,1.7-0.4,3.3-2,4.3c-1,0.6-1.9,0-1.9-1c-0.1-1.7,0.5-3.3,2-4.2
			C142.5,629,143.1,629.6,143.6,630.3z"/>
		<path class="st18" d="M109.1,608.5c0.7,2.4,0,4.7-2.7,5.9c-2.7,1.2-5,0.2-6.2-2.5c-1.2-2.8-0.1-5,2.4-6.3
			C104.8,604.5,107.9,605.8,109.1,608.5z M105.6,612.8c1.4-0.9,2.2-2.2,1.6-3.8c-0.7-1.7-2.2-2.4-4-1.6c-1.6,0.7-2.1,2.1-1.4,3.7
			C102.6,612.9,104,613.1,105.6,612.8z"/>
		<path class="st15" d="M105.6,612.8c-1.6,0.3-3,0.1-3.7-1.6c-0.7-1.6-0.2-3,1.4-3.7c1.8-0.8,3.3-0.1,4,1.6
			C107.9,610.6,107,612,105.6,612.8z"/>
	</g>
</g>
<g class="st6">
	<g>
		<path d="M462.4,710.3c0,5.9,0,11.8,0,17.8c-0.6,0.8-0.7,1.7-0.9,2.6c-1.3,5.4-3.4,6.7-8.7,6.7c-8.1,0-14.9,3.2-19.5,10
			c-4.1,6-6,12.6-4.5,19.9c1.1,5.1,3.9,9.3,7.5,13c3.2,3.3,3.2,6.7,0,10c-3.5,3.7-7,7.4-10.7,10.9c-2.2,2.1-4.4,4.4-6.9,6.1
			c-2.4,1.6-4.2,1.6-6.5-0.1c-0.9-0.6-1.7-1.3-2.5-2.1c-4-3.7-8.8-5.9-14.2-6.7c-10.5-1.6-21,4-25.6,13.6c-1.7,3.6-2.4,7.3-2.6,11.2
			c-0.1,3.8-1.8,6.1-4.9,6.8c-0.8,0.2-1.7,0.2-2.5,0.3c-0.9,0.1-1.7,0.2-2.4,0.8c-5.8,0-11.5,0-17.3,0c-1.4-0.7-2.9-0.8-4.3-1.3
			c-3.3-1.1-4.7-2.8-4.7-6.4c0-1.6-0.1-3.3-0.2-4.9c-1.9-16.9-20.5-24.5-32.4-19.9c-3.8,1.4-7,3.5-10,6.2c-4,3.6-7.2,3.5-11-0.2
			c-3.3-3.2-6.6-6.5-9.9-9.8c-2.2-2.2-4.4-4.4-6.2-7c-1.8-2.5-1.8-4.2,0-6.7c0.7-1,1.5-1.9,2.3-2.8c5.8-6.6,8.2-14.1,6-22.8
			c-1.9-7.4-5.9-13.4-13.1-16.8c-3.2-1.5-6.6-2-10.1-2.3c-6.1-0.5-9.3-4-9.2-10.1c0.2-6.6-0.5-13.2,0.7-19.8
			c0.8-4.3,2.5-6.4,6.9-6.6c2.4-0.1,4.8-0.4,7.1-0.9c15.7-3.5,21.7-20.3,18.2-30.9c-1.5-4.4-4.1-8.1-7.2-11.5c-3-3.3-3-6.4,0.1-9.6
			c1.5-1.5,2.9-3.1,4.4-4.6c4-4.1,8.2-8.1,12.4-12c2.4-2.2,5-2.3,7.7-0.5c0.7,0.5,1.4,1.1,2,1.7c5.9,5.2,12.6,8.3,20.6,7
			c7.8-1.2,14.2-4.8,18.3-11.7c2.5-4.1,3.4-8.7,3.6-13.4c0.1-2.5,0.7-4.9,3.2-6c2.2-1,4.7-1.5,7.1-1.6c4.8-0.2,9.5,0,14.3-0.1
			c2.8-0.1,5.4,0.8,7.9,1.8c2,0.8,3.2,2.4,3.6,4.6c0.2,1.1,0.1,2.2,0.1,3.2c0.3,8.4,3.4,15.3,10.6,19.8c7,4.4,14.4,5.9,22.4,3
			c3.7-1.3,6.8-3.6,9.7-6.2c3.7-3.3,6.9-3.2,10.6,0.2c3.5,3.3,7,6.7,10.4,10.1c2.1,2.2,4.3,4.3,6,6.8c1.7,2.4,1.6,3.9,0,6.4
			c-1,1.5-2.3,2.9-3.4,4.3c-5.9,7.4-7.3,15.5-4,24.4c2.8,7.6,7.9,12.9,16,15c2.3,0.6,4.6,0.7,6.9,1.1c5.4,1,7.9,3.6,8.6,9.1
			C462.2,710,462.2,710.2,462.4,710.3z M414.7,718.3c-0.1-1.5-0.1-3.6-0.3-5.7c-1.6-15.6-7.7-29-18.9-40
			c-15.3-14.9-33.8-21.2-54.9-18.1c-19,2.7-34.1,12.4-44.8,28.3c-9.8,14.6-12.9,30.7-9.6,48c3.4,18,12.9,32.3,28.3,42.4
			c14.8,9.6,31.1,12.3,48.3,9.2c7.5-1.4,14.5-4.1,20.7-8.7c0.8-0.6,0.8-0.9,0.1-1.7c-7.4-7.3-14.9-14.4-21.9-22.1
			c-3.5-3.8-7.5-4.8-12.4-3.4c-5.4,1.5-11,1.6-16.5,0.5c-20-4-34.8-23.4-31.5-44.3c0.3-1.9,0.7-3.9,1.7-5.6c1.5-2.5,2.9-2.9,5.5-1.5
			c1,0.6,1.9,1.3,2.8,2c4.9,4.5,9.6,9.3,14.2,14.1c2,2.1,4.5,3.2,7.4,2.9c3.2-0.3,6.3-0.8,9.5-1.4c2.1-0.4,3.2-1.7,3.5-3.8
			c0.4-2.7,0.8-5.4,1.3-8c0.6-3.2-0.2-5.9-2.6-8.1c-3.4-3.2-6.8-6.5-10-9.8c-1.8-1.9-3.7-3.7-5.3-5.7c-3.2-4.3-2.3-7.3,3-8.4
			c5.9-1.2,11.8-1.2,17.7,0.3c18.1,4.5,30.1,19.7,30.1,38.4c0,4.3-0.7,8.5-1.8,12.7c-0.5,1.9-0.4,3.6,1.2,5.1
			c8.3,8.3,16.6,16.6,24.9,25c0.7,0.7,1,0.8,1.6-0.1C411.9,741,414.5,730.3,414.7,718.3z"/>
	</g>
</g>
<g class="st19">
	<g>
		<path d="M1210.5,609.3c0,2.5,0,5,0,7.4c0,0.8-0.3,1.1-1,1.2c-3.8,0.8-7.6,1.5-11.2,3c-12.8,5.2-20.8,14.7-24.3,27.8
			c-3.9,14.7-1.5,28.3,8.6,40.1c6.2,7.2,13.9,11.8,23.4,13.2c3.2,0.5,6.5,0.3,9.8,0.3c1,0,2,0,3,0.3c3.9,0.8,6,3.6,5.7,7.7
			c-0.4,4.1-2.4,6.3-6.9,6.7c-13.4,1.3-25.8-1.3-36.8-9.3c-11.2-8.1-18.3-19.1-21.5-32.5c-3.4-13.6-2.5-27,3.4-39.8
			c5.7-12.6,15-21.7,27.6-27.3c3.7-1.6,5.3-4.2,5.8-8c1.7-14.5,6-28.2,14.7-40.2c9.7-13.5,22.9-22.6,38.6-27.8
			c18.3-6.1,36.6-6.1,54.7,0.8c18.2,7,30.9,19.8,38.7,37.7c0.1,0.2,0.2,0.4,0.3,0.7c1,3.3,3.4,4.7,6.7,5.3
			c14.9,2.6,28.2,8.6,39,19.4c11.4,11.4,18.8,24.9,20.5,41.1c2.4,22.8-3.9,43.1-19.2,60.2c-9.7,10.8-21.9,17.1-36.5,18.8
			c-1.5,0.2-3.1,0.3-4.6,0.5c-5.4,0.7-7.8-3-8.1-6.2c-0.5-4.8,2-7.8,6.8-8.3c6.1-0.7,12-2,17.6-4.4c10.2-4.4,17.6-11.7,22.6-21.5
			c4.9-9.7,7.7-20,7.6-30.9c-0.1-14.5-5.3-27.1-15.4-37.5c-8.5-8.8-18.8-14.4-30.8-16.6c-3.3-0.6-6.6-0.9-9.9-0.7
			c-3.1,0.1-4.6-0.8-5.7-3.9c-2.1-6.1-4.4-12.1-7.7-17.6c-8.4-14.2-20.9-22.5-37.2-24.9c-12-1.8-24-1.4-35.7,2.4
			c-8.3,2.7-15.6,7-22,13.1c-10.4,9.9-16.9,22-19.3,36.1C1210.8,600.2,1210.5,604.8,1210.5,609.3z"/>
		<path d="M1291.1,722.6c1.7-1.9,3.2-3.5,4.7-5.1c3.7-4.1,7.4-8.2,11.1-12.3c0.1-0.1,0.3-0.3,0.4-0.4c3.6-4.1,7.2-4,11,0.5
			c1.5,1.8,1.5,3.8-0.1,5.7c-1.8,2.1-3.7,4.1-5.5,6.2c-8.3,9.1-16.6,18.2-24.9,27.2c-0.3,0.3-0.5,0.6-0.8,0.9
			c-2.7,2.5-5.7,2.5-8.3-0.2c-3.6-3.8-7.1-7.7-10.6-11.6c-6.3-6.9-12.5-13.9-18.6-21c-1.9-2.2-1.7-6.5,0.3-8.5
			c2.8-2.6,6.3-2.8,8.8-0.2c4.3,4.6,8.5,9.4,12.8,14.1c0.7,0.8,1.5,1.7,2.2,2.5c0.4,0.5,0.8,0.9,1.6,0.6c0.9-0.3,0.5-0.9,0.5-1.4
			c0-12.2,0-24.3,0-36.5c0-12,0-24.1,0-36.1c0-1.9,0-3.8,0.4-5.6c0.8-3.7,5.6-6.7,9.2-5.7c2.7,0.8,5.4,4.7,5.5,8c0,1.4,0,2.9,0,4.3
			c0,22.4,0,44.8,0.1,67.2C1290.7,717.6,1290.9,719.9,1291.1,722.6z"/>
	</g>
</g>
<g class="st20">
	<g>
		<path d="M1008,116.4c2.1-8.4,2.1-17,4.2-25.4C1025,40,1067,2.5,1119-4.1c68.1-8.6,130.4,37.6,141.4,105.1
			c11.1,67.6-34.1,132.2-101.5,145.1c-70,13.4-138.1-34.6-148.8-104.6c-0.8-5.2-0.2-10.6-2.1-15.6C1008,122.7,1008,119.6,1008,116.4
			z M1135.1,241.6c66.5,0,120.6-53.9,120.7-120.1c0-66-54.5-120.6-120.5-120.5c-66,0-120.1,54.1-120.1,120.2
			C1015,187.8,1068.6,241.6,1135.1,241.6z"/>
		<path d="M1135.8,157.8c-11.6,0-23.3,0.1-34.9,0c-15.8-0.1-27.9-11.7-28.1-26.9c-0.2-14.7,11.8-28.7,26.8-27.3
			c9.7,0.8,12.6-2.8,16.9-9.7c7.7-12.4,23.2-17.4,37.1-13.5c14.6,4,24.3,15.7,25.4,30.8c0.2,2.6,1.1,4,3.4,5.2
			c9.9,5.4,14.3,14.8,11.8,24.6c-2.7,10.6-10.5,16.6-22,16.8C1160.2,158,1148,157.8,1135.8,157.8z M1136,151.6
			C1136,151.6,1136,151.6,1136,151.6c12.2,0,24.3,0.1,36.5-0.1c8.3-0.1,14.5-5.5,15.7-12.9c1.2-7.4-2.6-14.7-9.6-16.8
			c-4.6-1.3-5.5-3.6-5.5-7.9c-0.1-14.8-11.3-26.8-26.1-28.4c-13.4-1.5-26.6,8.3-30,22.2c-1.5,6-2.1,6.3-7.8,3.9
			c-8.6-3.6-17-2.1-23.4,4.2c-6.2,6.1-8.2,15-4.7,22.9c3.8,8.5,10.5,12.9,20,12.9C1112.8,151.6,1124.4,151.6,1136,151.6z"/>
	</g>
</g>
<g>
	<path class="st21" d="M481,528.4c0,8.9-7.2,16.1-16.1,16.1s-16.1-7.2-16.1-16.1c0-8.9,7.2-16.1,16.1-16.1
		C473.8,512.3,481,519.5,481,528.4z"/>
	<path class="st21" d="M606.3,565.7v61c0,4.7-3.9,8.6-8.6,8.6h-2.5V662h-42.1v-53.5l0,0l-11.2,5l-17.9,8.1l-0.8,0.4
		c-0.4,0.2-0.9,0.3-1.3,0.5c-0.3,0.1-0.5,0.1-0.7,0.2c-0.3,0.1-0.5,0.1-0.7,0.1c-0.3,0-0.7,0.1-0.9,0.1s-0.6,0-0.8-0.1
		c-0.3,0-0.5-0.1-0.7-0.1c-0.3-0.1-0.5-0.1-0.7-0.2c-0.4-0.2-0.9-0.3-1.3-0.5l-0.8-0.4l-17.9-8.1l-11.2-5l0,0V662h-42.1v-26.8h-2.5
		c-4.7,0-8.6-3.9-8.6-8.6v-61c0-5.5,4.4-10,10-10h13.3l8.8,12.7l8.7-12.8h13.3c5.5,0,10,4.4,10,10v28.2l22.4,10.2l22.3-10.2v-28.1
		c0-5.5,4.5-10,10-10h13.3l8.9,12.7l8.8-12.8h13.3C601.8,555.6,606.3,560.1,606.3,565.7z"/>
	<path class="st21" d="M524,621.6c-0.7,0.4-1.4,0.7-2.2,0.8c0.4-0.2,0.9-0.3,1.3-0.5L524,621.6z"/>
	<path class="st21" d="M561.2,528.4c0,8.9,7.2,16.1,16.1,16.1c8.9,0,16.1-7.2,16.1-16.1c0-8.9-7.2-16.1-16.1-16.1
		C568.4,512.3,561.2,519.5,561.2,528.4z"/>
	<path class="st21" d="M517.3,622.5c-0.8-0.2-1.5-0.5-2.2-0.8l0.8,0.4C516.4,622.2,516.8,622.3,517.3,622.5z"/>
</g>
<g>
	<g>
		<g>
			<g>
				<rect x="1515.3" y="644.7" class="st21" width="14.9" height="7.1"/>
			</g>
			<g>
				<rect x="1515.3" y="657.2" class="st21" width="41.5" height="7.1"/>
			</g>
		</g>
		<path class="st21" d="M1566.1,651.4v36.1H1525v-16.1h-19v-59.7h20.9c0.5-2.5,1.3-4.8,2.3-7.1h-26.7c-1.9,0-3.6,1.6-3.6,3.6V672
			c0,0.9,0.4,1.9,1.1,2.6l18.9,18.9c0.7,0.7,1.6,1.1,2.6,1.1h48.2c1.9,0,3.6-1.6,3.6-3.6v-41.9
			C1570.9,650.1,1568.6,650.9,1566.1,651.4z"/>
	</g>
	<path class="st21" d="M1602.7,654.2l-16.1-15.7l-3.9-3.8c3.2-4.6,5.2-10.2,5.2-16.2c0-15.5-12.6-28.2-28.2-28.2
		c-10.5,0-19.6,5.7-24.5,14.3c-1.3,2.2-2.2,4.5-2.8,7.1c-0.6,2.2-0.8,4.5-0.8,6.8c0,15.5,12.6,28.2,28.2,28.2c2.2,0,4.4-0.3,6.4-0.7
		c2.5-0.6,4.9-1.5,7.1-2.7c0.9-0.5,1.8-1.1,2.7-1.7l3.8,3.9l15.7,16.1c1.1,1.1,2.8,1.1,3.8,0l3.5-3.5
		C1603.8,657,1603.7,655.2,1602.7,654.2z M1575.9,628.2c-0.8,1.3-1.7,2.5-2.7,3.6c-1.2,1.2-2.4,2.2-3.9,3.1c-1,0.6-2.1,1.1-3.2,1.5
		c-2,0.7-4.2,1.1-6.4,1.1c-10.4,0-19-8.5-19-19c0-2.4,0.4-4.7,1.3-6.8c1.1-2.7,2.7-5.2,4.8-7.1c3.4-3.1,7.9-5,12.8-5
		c10.4,0,18.9,8.5,18.9,18.9C1578.6,622,1577.6,625.3,1575.9,628.2z"/>
	<path class="st21" d="M1559.7,606.4c0,0.6-0.2,1.1-0.5,1.4c-0.3,0.4-0.8,0.7-1.3,0.8c-2.2,0.4-4.1,1.5-5.5,3.1
		c-1.3,1.4-2.2,3.1-2.6,5c-0.2,1.1-1.1,1.8-2.2,1.8c-1.3,0-2.2-1.1-2.2-2.2c0-0.2,0-0.3,0.1-0.4c0.3-1.5,0.8-2.9,1.4-4.2
		c1.8-3.4,5-6,8.8-7.1c0.4-0.1,0.9-0.2,1.4-0.3c0.6-0.1,1.2,0,1.7,0.3C1559.3,605,1559.7,605.6,1559.7,606.4z"/>
</g>
<g>
	<g>
		<circle class="st21" cx="1193.8" cy="740.2" r="18.6"/>
		<g>
			<path class="st21" d="M1252.1,752.9l-37,30v94.2c0,6-4.9,10.9-10.9,10.9c-5,0-9.2-3.3-10.5-7.9c-1.3,4.5-5.5,7.9-10.5,7.9
				c-6,0-10.9-4.9-10.9-10.9V783l-37-30c-4.7-3.8-5.4-10.7-1.6-15.4c3.8-4.7,10.7-5.4,15.4-1.6l44.7,36.2l44.7-36.2
				c4.7-3.8,11.6-3.1,15.4,1.6C1257.5,742.3,1256.8,749.1,1252.1,752.9z"/>
		</g>
	</g>
	<path class="st21" d="M1109.4,748.5l-22.2-22.2c-1.6-1.6-1.6-4.3,0-6l32.1-32.1c1.6-1.6,4.3-1.6,6,0l22.2,22.2c1.6,1.6,1.6,4.3,0,6
		l-32.1,32.1C1113.7,750.2,1111,750.2,1109.4,748.5z"/>
</g>
<g>
	<path class="st21" d="M1134.2,292.2L1118,279l-0.1-0.1c-2.2-2.1-5-3.3-8.3-3.3c-2.6,0-5.5,0.8-7.7,2.2c-1.1,0.7-2.4,1.1-3.7,1.1
		h-14.6c-1.3,0-2.6-0.4-3.7-1.1c-2.2-1.4-5.2-2.2-7.7-2.2c-3.2,0-6.1,1.3-8.3,3.3l-0.1,0.1l-16.3,13.2l0,0
		c-9.5,4-16.2,13.5-16.2,24.5c0,14.6,11.9,26.5,26.5,26.5c9.5,0,18-5.1,22.6-12.7c1.3-2.1,3.5-3.4,5.9-3.4h8.9
		c2.4,0,4.6,1.2,5.8,3.2c5.2,8.6,15,14,26,12.7c12-1.4,21.7-11.2,23.1-23.2C1151.7,307.5,1144.7,296.7,1134.2,292.2z M1072.1,327.1
		c-3.2,4.4-8.4,7.3-14.3,7.3c-9.7,0-17.6-7.9-17.6-17.6c0-5.9,2.9-11.2,7.4-14.3c2.9-2.1,6.4-3.3,10.3-3.3c9.8,0,17.6,7.9,17.6,17.6
		C1075.6,320.6,1074.3,324.2,1072.1,327.1z M1091,320c-1.9,0-3.4-1.5-3.4-3.4c0-1.9,1.5-3.4,3.4-3.4s3.4,1.5,3.4,3.4
		C1094.3,318.5,1092.8,320,1091,320z M1124,334.3c-5.8,0-11-2.8-14.3-7.3c-2.2-2.9-3.4-6.5-3.4-10.4c0-9.7,7.9-17.6,17.6-17.6
		c3.8,0,7.4,1.2,10.3,3.3c4.4,3.2,7.4,8.4,7.4,14.3C1141.6,326.4,1133.7,334.3,1124,334.3z"/>
	<path class="st21" d="M1058.8,305c0,0.6-0.2,1.1-0.5,1.4c-0.3,0.4-0.8,0.7-1.3,0.8c-4.2,0.7-7.5,3.9-8.4,8
		c-0.1,0.2-0.1,0.3-0.1,0.5c-0.2,1.1-1.1,1.8-2.2,1.8c-1.2,0-2.2-1-2.2-2.2c0-0.1,0-0.2,0.1-0.4c0.6-3.3,2.2-6.2,4.5-8.4
		c2.1-2,4.8-3.4,7.8-3.9C1057.6,302.5,1058.8,303.6,1058.8,305z"/>
	<path class="st21" d="M1124.8,305c0,0.6-0.2,1.1-0.5,1.4c-0.3,0.4-0.8,0.7-1.3,0.8c-4.3,0.8-7.8,4.2-8.5,8.5
		c-0.2,1.1-1.1,1.8-2.2,1.8c-1.2,0-2.2-1-2.2-2.2c0-0.1,0-0.2,0-0.3c1.1-6.2,6-11.2,12.3-12.3C1123.6,302.5,1124.8,303.6,1124.8,305
		z"/>
</g>
<g>
	<path class="st21" d="M1520.8,506.1c0,8.8-7.1,15.9-15.9,15.9c-8.8,0-15.9-7.1-15.9-15.9c0-8.8,7.1-15.9,15.9-15.9
		S1520.8,497.3,1520.8,506.1z"/>
	<path class="st21" d="M1537.1,557.6h-64.5l5.5-22.5c1.2-4.8,5.4-8,10.3-8h10.2l6.2,7.3l6.2-7.3h10.2c4.9,0,9.2,3.3,10.3,8
		L1537.1,557.6z"/>
	<path class="st21" d="M1569,562.5v12.8h-103.3v-12.8h89.6c1.3-2.5,2.7-6.3,2.7-11c0-4-2.4-8.3-5-11.7c-3.2,1.2-6.9,0.5-9.5-2.1
		l-11-11c-3.5-3.5-3.5-9.3,0-12.8c1.8-1.8,4-2.7,6.4-2.7c2.3,0,4.6,0.9,6.4,2.7l11,11c2.6,2.6,3.3,6.2,2.1,9.4
		c3.4,4.3,7.3,10.5,7.3,17.1c0,4.3-0.9,8-2,11H1569L1569,562.5z"/>
</g>
<g>
	<g>
		<g>
			<path class="st21" d="M1514.4,422.8L1514.4,422.8c-0.9,0-1.8-0.4-2.5-1.1l-6.4-6.4l5-5l3.9,3.9l9.3-9.3l5,5l-11.8,11.8
				C1516.3,422.5,1515.4,422.8,1514.4,422.8z"/>
		</g>
		<g>
			<path class="st21" d="M1528.7,428.7l-11.8,11.8c-0.7,0.7-1.6,1.1-2.5,1.1s-1.8-0.4-2.5-1.1l-6.4-6.4l5-5l3.9,3.9l9.3-9.3
				L1528.7,428.7z"/>
		</g>
		<g>
			<path class="st21" d="M1566.6,379.2v-2.5c0-3.9-3.2-7.2-7.2-7.2h-45.7c-0.8,0-1.6,0.3-2.1,0.9l-17.6,17.6
				c-0.6,0.6-0.9,1.3-0.9,2.1v57.9c0,3.9,3.2,7.2,7.2,7.2h59.2c4,0,7.2-3.2,7.2-7.2v-18.6l-8,3.2v14.7H1501v-47.4h15.2
				c4,0,7.2-3.2,7.2-7.2v-15.2h35.2v4L1566.6,379.2z M1515.4,391.9h-14.1l14.1-14.1V391.9z"/>
		</g>
	</g>
	<g>
		<path class="st21" d="M1595,389.8l-15.4-15.4c-1.1-1.1-2.9-0.9-3.8,0.4l-4.2,7.6l-5,1.4l-8,2.3l-6.9,2c-0.8,0.2-1.6,0.8-1.8,1.6
			l-16.6,42c-0.9,2.7,1.7,5.4,4.4,4.4l21-8.3l8-3.2l13.1-5.2c0.8-0.3,1.4-1,1.6-1.8l5.7-20l7.6-4.2
			C1595.9,392.8,1596.1,391,1595,389.8z M1571.4,408.1c-1.3,1.3-3.1,2.1-4.8,2.1c-1.3,0.1-2.6-0.2-3.7-0.8l-4.3,4.3l-17.1,17.1
			c-0.8,0.8-2.1,0.8-2.9,0c-0.8-0.8-0.8-2.1,0-2.9l20-20l1.4-1.4c-1.4-2.7-1.1-6.2,1.2-8.4c1.4-1.4,3.4-2.2,5.3-2.1
			c1.7,0.1,3.4,0.8,4.8,2.1C1574.1,400.8,1574.1,405.4,1571.4,408.1z"/>
	</g>
</g>
<g>
	<g>
		<g>
			<path class="st21" d="M1033.8,633.5l1.8-0.4v-8.5l-1.9-0.4V622h5.4l0.2,1.9c0.4-0.7,1-1.2,1.7-1.6c0.7-0.4,1.4-0.6,2.2-0.6
				c1.4,0,2.4,0.4,3.2,1.3c0.8,0.9,1.2,2.2,1.2,4.1v5.9l1.8,0.4v2.2h-7v-2.2l1.6-0.4v-5.9c0-0.9-0.2-1.6-0.6-1.9s-0.9-0.6-1.7-0.6
				c-0.5,0-0.9,0.1-1.3,0.3c-0.4,0.2-0.7,0.5-1,0.8v7.3l1.5,0.4v2.2h-6.9L1033.8,633.5L1033.8,633.5z"/>
			<path class="st21" d="M1050.4,628.7c0-2.1,0.6-3.7,1.7-5c1.2-1.3,2.7-1.9,4.7-1.9s3.6,0.7,4.8,1.9c1.2,1.3,1.7,3,1.7,5v0.3
				c0,2.1-0.6,3.7-1.7,5c-1.2,1.3-2.7,1.9-4.7,1.9c-2.1,0-3.6-0.7-4.8-1.9c-1.2-1.3-1.7-2.9-1.7-5V628.7z M1054,629
				c0,1.2,0.2,2.3,0.7,3c0.4,0.8,1.2,1.1,2.1,1.1c0.9,0,1.7-0.4,2.1-1.1c0.4-0.8,0.7-1.8,0.7-3v-0.3c0-1.2-0.2-2.2-0.7-3
				c-0.4-0.8-1.2-1.2-2.1-1.2c-0.9,0-1.7,0.4-2.1,1.2c-0.4,0.8-0.7,1.8-0.7,3V629z"/>
			<path class="st21" d="M1084.3,624.2l-1.4,0.2l-2.8,11.3h-3.1l-2.6-8.2h-0.1l-2.6,8.2h-3.1l-2.9-11.3l-1.4-0.2V622h6.2v2.2
				l-1.4,0.3l1.3,6.3h0.1l2.6-8.8h2.5l2.6,8.8h0.1l1.3-6.3l-1.4-0.3V622h6.2V624.2L1084.3,624.2z"/>
		</g>
		<g>
			<path class="st21" d="M1046,654.3h-3.6v-6.2h-5.2v6.2h-3.6v-14.7h3.6v5.8h5.2v-5.8h3.6V654.3z"/>
			<path class="st21" d="M1052,654.3h-3.6v-14.7h3.6V654.3z"/>
			<path class="st21" d="M1059.9,649.1h-1.9v5.2h-3.6v-14.7h5.8c1.7,0,3.1,0.4,4.1,1.2c1,0.8,1.5,1.9,1.5,3.3c0,1-0.2,1.9-0.6,2.6
				c-0.4,0.7-1.1,1.2-1.9,1.7l3.1,5.9v0.2h-3.8L1059.9,649.1z M1058,646.4h2.2c0.7,0,1.2-0.2,1.5-0.6c0.3-0.3,0.5-0.8,0.5-1.5
				c0-0.6-0.2-1.1-0.5-1.5c-0.3-0.4-0.8-0.6-1.5-0.6h-2.2V646.4z"/>
			<path class="st21" d="M1071.7,654.3h-3.6v-14.7h3.6V654.3z"/>
			<path class="st21" d="M1086.5,654.3h-3.6l-5.2-9.2v9.2h-3.6v-14.7h3.6l5.2,9.2v-9.2h3.6V654.3z"/>
			<path class="st21" d="M1100.8,652.5c-0.6,0.6-1.3,1.1-2.4,1.4c-1.1,0.4-2.2,0.6-3.4,0.6c-1.9,0-3.4-0.6-4.6-1.8
				c-1.2-1.2-1.8-2.8-1.8-4.9v-1.3c0-1.4,0.3-2.7,0.8-3.8s1.2-1.9,2.2-2.5c0.9-0.6,2.1-0.9,3.3-0.9c1.8,0,3.3,0.4,4.3,1.3
				c1,0.8,1.6,2.1,1.8,3.8h-3.4c-0.1-0.8-0.4-1.4-0.8-1.8c-0.4-0.3-1-0.5-1.7-0.5c-0.9,0-1.6,0.4-2.1,1.1c-0.5,0.8-0.7,1.8-0.7,3.2
				v0.9c0,1.4,0.3,2.6,0.8,3.3c0.5,0.8,1.3,1.1,2.4,1.1c0.9,0,1.6-0.2,2.1-0.6v-2.3h-2.4v-2.4h6v6H1100.8z"/>
			<path class="st21" d="M1102.8,652.8c0-0.5,0.2-0.9,0.6-1.2s0.8-0.5,1.3-0.5c0.6,0,1,0.2,1.3,0.5c0.4,0.3,0.6,0.7,0.6,1.2
				c0,0.5-0.2,0.9-0.6,1.2c-0.4,0.3-0.8,0.5-1.3,0.5c-0.6,0-1-0.2-1.3-0.5C1103,653.7,1102.8,653.3,1102.8,652.8z M1106.1,649.7
				h-2.8l-0.4-10h3.6L1106.1,649.7z"/>
		</g>
	</g>
	<g>
		<path class="st21" d="M1027.2,636.2c3.2,8,4.1,15.8,2.8,20.4c-0.6,2-1.6,3.3-3,3.9c-0.8,0.3-1.8,0.3-2.8,0.1l0,0
			c-3.2-0.9-7-4.7-10.3-10.3l4.8-4.7c1.1-1.1,1.4-2.7,0.9-4.1l-1.5-3.8c-0.6-1.4-1.9-2.4-3.4-2.4l-6.7-0.2
			c-1.4-6.3-1.2-11.7,0.5-14.6c0.6-0.9,1.2-1.6,2.1-1.9c1.4-0.6,3.1-0.2,4.8,0.8C1019.4,621.9,1024,628.2,1027.2,636.2z"/>
		<path class="st21" d="M989.1,668.6l4.3,11c0.7,1.8-0.2,3.8-2,4.5l-2.2,0.8c-1.8,0.7-3.8-0.2-4.5-2l-6.2-15.6c2.1,1,4.5,1.5,7,1.5
			h0.2L989.1,668.6z"/>
		<path class="st21" d="M1007.4,644c2.7,6.7,6.5,12.9,10.8,16.6c0.2,0.2,0.1,0.6-0.2,0.6l-30.5,3.3l-1.9,0.2c-3.3,0-6.4-1.3-8.7-3.6
			l-0.7,0.3c-1.8,0.7-3.9,0.2-5.2-1.2l0,0c-0.4-0.4-0.7-0.9-0.9-1.5c-0.2-0.6-0.3-1.2-0.3-1.8c0-0.7,0.2-1.3,0.4-1.9
			c0.5-1.1,1.4-2.1,2.6-2.6l0.6-0.2c0-0.8,0.1-1.6,0.3-2.3c0.6-2.3,1.8-4.5,3.6-6.2l26.1-19.6c0.2-0.2,0.6,0,0.6,0.3
			C1003.4,630,1004.8,637.3,1007.4,644z"/>
	</g>
</g>
<g class="st20">
	<g>
		<path d="M40.1,762c0-4.9,0-9.8,0-14.7c0-7.1,4.6-13.1,11.4-15.3c6.6-2,13.7,0.4,17.6,6.2c0.7,1,1.3,1.1,2.4,1.1
			c7.8,0,15.6,0,23.3,0c1.5,0,2,0.3,2,1.9c-0.1,4-0.1,8,0,12.1c0,1.5-0.5,2-2,2c-6.6-0.1-13.3,0-19.9,0c-2.7,0-2.7,0-2.7,2.6
			c0,1.5,0.1,3.1,0,4.6c-0.1,1.2,0.4,1.5,1.6,1.5c4.6,0,9.2,0,13.8,0c6.2,0,9.2,3,9.2,9.1c0,7,0,14,0,21.1c0,1.5-0.3,2.1-2,2.1
			c-4-0.1-8-0.1-12.1,0c-1.4,0-1.9-0.4-1.9-1.8c0.1-4,0-8,0-12.1c0-2.4-0.1-2.5-2.5-2.5c-4.1,0-8.2,0.1-12.2,0
			c-1.8,0-2.3,0.6-2.3,2.3c0.1,9.4,0,18.9,0.1,28.3c0,1.8-0.5,2.3-2.3,2.2c-3.8-0.1-7.7-0.2-11.5,0c-1.9,0.1-2.2-0.6-2.2-2.3
			c0.1-9.4,0-18.9,0.1-28.3c0-1.8-0.5-2.4-2.3-2.3c-1.4,0.1-2.8-0.1-4.2,0c-1.5,0.1-1.7-0.6-1.7-1.9C40.1,772.6,40.1,767.3,40.1,762
			z"/>
		<path d="M121.5,869.6c-26.5,0-52.9,0-79.4,0c-1.6,0-2.1-0.4-2-2c0.1-3.9,0.1-7.8,0-11.7c0-1.6,0.4-2.2,2.1-2.2
			c19.5,0.1,38.9,0,58.4,0c33.3,0,66.6,0,99.9,0c2.5,0,2.5,0,2.5,2.5c0,3.8-0.1,7.7,0,11.5c0,1.4-0.4,1.9-1.8,1.8
			c-21.4,0-42.9,0-64.3,0C131.7,869.6,126.6,869.6,121.5,869.6z"/>
		<path d="M194.8,776.2c0,22.2,0,44.4,0,66.6c0,2-0.6,2.5-2.5,2.4c-3.8-0.2-7.5-0.1-11.3,0c-1.7,0-2.2-0.4-2.2-2.1
			c0.1-17.3,0-34.7,0-52c0-26.9,0-53.7,0-80.6c0-4.3-0.3-3.6,3.5-3.6c3.4,0,6.8,0.1,10.1,0c1.7-0.1,2.3,0.4,2.3,2.2
			c-0.1,18.8,0,37.6,0,56.5C194.8,769,194.8,772.6,194.8,776.2z"/>
		<path d="M162,788.3c0,18.1,0,36.2,0,54.4c0,2.5,0,2.5-2.5,2.5c-3.7,0-7.4-0.1-11.1,0c-1.7,0.1-2.3-0.4-2.3-2.2c0.1-21,0-42,0-63
			c0-15.5,0-31,0-46.5c0-1.8,0.5-2.3,2.3-2.2c3.8,0.1,7.7,0.1,11.5,0c1.9-0.1,2.2,0.6,2.2,2.3C162,751.8,162,770,162,788.3z"/>
		<path d="M129.4,804.5c0,12.8,0,25.6,0,38.4c0,1.8-0.5,2.3-2.3,2.2c-3.9-0.1-7.9-0.1-11.9,0c-1.3,0-1.8-0.3-1.8-1.7
			c0-26,0-51.9,0-77.9c0-1.3,0.4-1.8,1.7-1.7c4.1,0.1,8.2,0.1,12.2,0c1.6,0,1.9,0.6,1.9,2C129.4,778.7,129.4,791.6,129.4,804.5z"/>
		<path d="M96.8,829.1c0,4.8,0,9.6,0,14.3c0,1.4-0.4,1.8-1.8,1.7c-4.1-0.1-8.3-0.1-12.4,0c-1.4,0-1.7-0.5-1.7-1.8
			c0-9.6,0-19.1,0-28.7c0-1.4,0.4-1.9,1.9-1.8c4.1,0.1,8.2,0.1,12.2,0c1.5,0,1.8,0.5,1.8,1.9C96.8,819.5,96.8,824.3,96.8,829.1z"/>
		<path d="M68.5,730.7c-6.9,0-12-5-12-11.9c0-6.7,5.2-12,11.8-12c6.7,0,12.1,5.2,12.1,11.9C80.4,725.4,75.2,730.7,68.5,730.7z"/>
		<path d="M56,845.1c-2.2,0-4.3,0-6.5,0c-1,0-1.4-0.3-1.4-1.3c0-4.4,0-8.8,0-13.2c0-1,0.4-1.3,1.4-1.3c4.3,0,8.7,0,13,0
			c1,0,1.5,0.4,1.5,1.4c0,4.3,0,8.7,0,13c0,1.1-0.5,1.4-1.5,1.4C60.3,845.1,58.1,845.1,56,845.1C56,845.1,56,845.1,56,845.1z"/>
	</g>
</g>
<g class="st6">
	<g>
		<path d="M519.3,743.6c4.1,1.2,8.3,1.2,12.4,2.3c24.7,6.8,42.4,26.9,45.9,52.3c0.6,4.2,0.5,8.4,0.4,12.9c-2.6-0.7-5.1-1.5-7.6-2
			c-1.9-0.4-1.2-1.8-1.3-2.8c-0.3-12.4-4.1-23.5-11.8-33.3c-12.8-16.3-35.3-24-55.4-18.2c-21.8,6.3-35.4,20.7-39,43.2
			c-4.7,29,13.9,54.9,42.8,60.7c7.5,1.5,15.1,1.2,22.5-0.6c1.4-0.3,1.9-0.1,2.5,1.2c1,2.2,2.2,4.3,3.4,6.6c-5.9,2.2-12.1,3-18.2,2.9
			c-25.9-0.6-45-12.5-56.9-35.6c-3.4-6.7-5.3-13.9-5.7-21.5c0-0.9,0.1-1.8-0.6-2.6c0-2.2,0-4.4,0-6.7c0.9-1.6,0.6-3.3,0.8-5
			c3.4-24.3,21.6-44.9,45.4-51.3c4.4-1.2,8.9-1.4,13.3-2.5C514.5,743.6,516.9,743.6,519.3,743.6z"/>
		<path d="M561.8,874.6c-1.1-0.9-2.5-0.6-3.8-0.8c-14.7-3-25.3-17.6-23.3-32.2c2.1-15.9,15.8-27,31.5-25.9
			c15.2,1,26.4,13.8,27.1,26.3c0,0.8,0.4,1.5,0.6,2.3c0,0.8,0,1.6,0,2.4c-0.2,0.6-0.5,1.1-0.6,1.7c-1.7,12.8-10.2,22.2-22.7,25.3
			c-1.3,0.3-2.9-0.1-4,1C565,874.6,563.4,874.6,561.8,874.6z M555.3,850c-1.1,6.1-1,6.4,4.6,7.8c2.2,0.6,1.9,2,1.8,3.5
			c-0.2,2.1,0.7,2.6,2.6,2.5c1.7,0,2.8-0.4,2.5-2.3c-0.4-2.4,0.7-3.5,2.9-4.3c3.2-1.2,4.9-3.9,4.9-7.3c0-3.4-1.8-5.7-4.9-6.9
			c-2.1-0.8-4.2-1.3-6.3-2c-1-0.3-2.2-0.7-2-2.2c0.2-1.4,1.4-1.6,2.5-1.6c2.7-0.2,5.1,0.8,7.6,1.8c0.8,0.3,1.6,1.1,1.9-0.6
			c0.8-3.8,0-5.4-3.8-6.3c-2.1-0.5-3.2-1.3-2.8-3.5c0.4-1.9-0.5-2.6-2.5-2.6c-2.2,0-2.9,0.7-2.7,2.8c0.1,1.3,0.4,2.5-1.6,3.2
			c-4.2,1.4-6.2,4.3-6,7.8c0.1,3.6,2.2,5.9,6.6,7.3c1.7,0.5,3.5,1,5.2,1.6c1,0.3,1.5,1,1.4,2.1c-0.1,1.1-0.8,1.5-1.8,1.7
			c-1,0.2-2,0.2-3,0.1C559.9,852,557.7,850.8,555.3,850z"/>
		<path d="M502,815c-6.4,0-12.7-0.1-19.1,0c-1.8,0-2.4-0.5-2.4-2.4c-0.2-7.6-0.2-7.6,7.2-7.6c7.5,0,15-0.2,22.4,0.1
			c2.9,0.1,3.5-1,3.4-3.6c-0.1-8.7,0-17.4-0.1-26.1c0-2.3,0.7-2.9,2.9-3c7.1-0.1,7.1-0.2,7.1,7c0,10.8-0.1,21.6,0,32.4
			c0,2.3-0.5,3.2-3,3.1C514.4,814.8,508.2,815,502,815z"/>
	</g>
</g>
<g class="st22">
	<g>
		<path d="M1432.3,709.1c2.1,0.2,4.2,0.3,6.3,0.5c18.1,1.8,34.1,8.5,48.2,19.9c1.9,1.5,3.7,3.1,5.4,4.8c0.5,0.5,0.8,0.5,1.3,0.1
			c4.3-3,8.6-6,12.9-8.9c0.2-0.2,0.4-0.5,0.7-0.3c0.3,0.1,0.1,0.5,0.2,0.8c0.6,16.8,1.2,33.5,1.7,50.3c0.1,1.6,0.1,1.6-1.4,0.9
			c-15.2-6.9-30.4-13.9-45.6-20.8c-0.3-0.1-0.6-0.3-0.9-0.4c0.2-0.4,0.5-0.5,0.8-0.7c4.5-2.9,9-5.7,13.6-8.5
			c0.8-0.5,0.7-0.7,0.1-1.3c-9.6-8.1-20.5-13.5-32.9-15.6c-20.3-3.6-39,0.6-55.6,13c-14,10.4-22.9,24.3-26.8,41.3
			c-1.9,8.3-2.2,16.8-1.1,25.2c2,14.4,7.9,27,17.5,37.8c7.1,7.9,15.6,13.9,25.4,18.1c10,4.2,20.3,5.9,31.1,5.4
			c10.8-0.5,20.9-3.4,30.3-8.6c12.4-6.8,21.8-16.4,28.6-28.8c3.9-7.1,6.4-14.7,7.6-22.7c0.5-3.2,0.8-6.5,0.8-9.8
			c0-0.8,0.2-1.1,1-1.1c5.8,0,11.7,0,17.5,0c0.9,0,1,0.3,1,1.1c-0.3,11-2.2,21.7-6.3,32c-3.6,9-8.4,17.2-14.6,24.7
			c-4.9,5.9-10.4,11.1-16.6,15.6c-10.2,7.4-21.4,12.4-33.7,15.1c-10.4,2.2-20.9,2.7-31.5,1.2c-10.6-1.5-20.7-4.6-30.2-9.7
			c-14.9-8.1-26.8-19.4-35.5-34c-5.2-8.8-8.7-18.1-10.7-28.1c-0.9-4.7-1.5-9.4-1.7-14.1c0-0.3-0.1-0.5-0.1-0.8c0-1.8,0-3.7,0-5.5
			c0-0.3,0.1-0.5,0.1-0.8c0.1-2.5,0.3-5.1,0.6-7.6c1.2-9.8,3.9-19.2,8.2-28.1c7.1-14.6,17.4-26.6,31-35.8
			c12.5-8.4,26.3-13.4,41.3-15c2.2-0.2,4.3-0.4,6.5-0.5C1428.6,709.1,1430.5,709.1,1432.3,709.1z"/>
	</g>
</g>
<g>
	<g>
		<path class="st23" d="M1006.6,885.8c-6.8,0-13.6,0-20.3,0c-5.1-2.2-10.9-2-16-4.3c3.4-3.5,6.7-7.3,10.4-10.5
			c2.7-2.4,3.2-4.3,0.3-6.6c9.8-6.7,19.2-13.9,26.6-23.3c1.1-1.4,3-2.3,2.5-4.6c-0.5-2.1-2.6-2.1-4.1-2.7c0.8-2.1,3-3,3-5.2
			c0-2.8-2.6-2.6-4.4-3.4c1.3-1.6,2.9-3,2-5c-1-2.3-2.7-1.9-4.6-1.1c-0.6,0.3-0.8-0.3-1.1-0.7c-3-4.1-3.7-4.2-7-0.4
			c-3.2,3.6-6.4,7.2-9.6,10.8c-0.2-2.3-0.1-4.1-0.3-5.9c-0.2-1.5-0.5-3-2.4-3c-1.9,0-2.9,1-3,2.9c-0.1,2.6-1.1,4.9-2.8,6.7
			c-4.1,4.3-5.3,9.4-5,15.1c0.1,2.7-0.4,5.1-2.3,7.2c-1.6-1.9-2.9-2.1-4.9,0c-5.6,6-11.5,11.8-17.3,17.7
			c-17.4-12-28.5-28.4-34.3-48.5c-1.3-4.4-2.1-9-3.2-13.4c0-6.5,0-13,0-19.6c2-5.4,1.9-11.3,4.2-16.7c3.4,3.3,7.1,6.5,10.2,10.1
			c2.5,2.8,4.6,3.8,7.2,0.4c6.4,10.2,14.2,19.3,23.6,26.9c4,3.2,5.4,3,7-1.7c6.2,4.1,6.6,4,8.6-0.9c0.4,0.1,0.8,0.2,1,0.4
			c1.4,1.1,3,1.9,4.6,0.6c1.4-1.2,1.3-2.7,0.1-4.1c-0.8-0.9,0-0.9,0.5-1.2c4.6-2.1,4.7-3.6,0.9-7c-3.4-3.1-6.8-6.2-10.5-9.5
			c2.1-1.1,3.6-0.4,5.1-0.7c1.6-0.3,3.3-0.4,3.3-2.5c0-1.9-1.2-2.7-3-2.8c-2.4-0.2-4.7-1-6.4-2.7c-4.3-4.4-9.6-5.4-15.4-5.1
			c-2.6,0.1-4.9-0.5-6.8-2.3c2.1-1.6,1.5-2.9-0.2-4.6c-6-5.7-11.9-11.6-17.8-17.4c0.5-0.8,0.9-1.6,1.4-2.3
			c12.2-15.9,27.9-26.5,47.1-32c4.4-1.3,9.1-1.3,13.4-3.1c6.5,0,13,0,19.6,0c0.4,0.9,1.3,0.7,2,0.8c5,0.9,10.1,1.6,14.9,3.5
			c-3.8,3.1-7,6.9-10.4,10.4c-2.2,2.3-3.2,4.2-0.8,6.8c-9.8,6.8-18.9,14.2-26.5,23.5c-3.2,4-2.9,5.4,2,7.1c-0.4,0.6-0.7,1.1-1.1,1.6
			c-2.2,2.5-3.6,4.9,0.9,6.4c1.6,0.6,0.7,1.4,0.2,2c-1,1.4-1.4,2.9-0.1,4.3c1.5,1.6,3.1,0.6,4.6-0.2c0.2,0.2,0.3,0.3,0.5,0.5
			c0.3,1.6,0.6,3.1,2.4,3.6c2,0.5,3.1-0.8,4.3-2.1c3.4-3.7,6.8-7.5,10.3-11.2c0.1,0.1,0.2,0.3,0.4,0.4c-0.1,1.8-0.3,3.6-0.1,5.4
			c0.1,1.4,0.6,2.9,2.5,2.8c1.7-0.1,2.6-1,2.7-2.7c0.1-2.6,1-4.9,2.8-6.7c4.2-4.2,5.4-9.4,5.1-15.1c-0.1-2.6,0.5-4.9,2.1-6.9
			c1.9,1.7,3.4,1.4,5.2-0.5c5.6-5.9,11.4-11.7,17.1-17.5c17.4,11.9,28.5,28.4,34.2,48.5c1.3,4.7,2.1,9.5,3.2,14.2
			c0,6.3,0,12.5,0,18.8c-2,5.4-1.9,11.4-4.3,16.8c-3.5-3.4-7.3-6.7-10.5-10.3c-2.4-2.7-4.3-3.1-6.6-0.2
			c-6.6-10.1-14.2-19.3-23.6-26.9c-3.9-3.2-5.5-2.9-7.1,1.8c-6.3-4-7-3.9-8.5,1.5c-0.4-0.4-0.8-0.7-1.2-1c-1.3-1.1-2.7-1.7-4.3-0.7
			c-1.5,0.9-1.4,2.4-0.7,3.8c0.4,0.9,0.2,1.2-0.7,1.8c-4,2.5-4,3.5-0.4,6.8c3.6,3.2,7.1,6.3,11.3,10.1c-2.6,0-4.3-0.1-5.9,0
			c-1.6,0.1-3.3,0.4-3.3,2.5c0,1.9,1.2,2.7,3,2.8c2.4,0.2,4.7,1,6.4,2.7c4.3,4.3,9.6,5.5,15.4,5.1c2.6-0.2,4.9,0.4,6.8,2.3
			c-2.1,1.7-1.8,3,0.2,4.8c6,5.6,11.8,11.4,17.6,17.1c-0.3,0.6-0.5,1.2-0.9,1.7c-12.2,16.2-28,27.2-47.6,32.6
			C1015.6,883.8,1011,884.7,1006.6,885.8z"/>
		<path class="st8" d="M1023.4,714.1c-4.8-2-9.8-2.6-14.9-3.5c-0.7-0.1-1.6,0.1-2-0.8c25.2,0,50.3,0,75.5-0.1c2.3,0,2.8,0.5,2.8,2.8
			c-0.1,25.4-0.1,50.8-0.1,76.3c-1.1-4.7-1.9-9.6-3.2-14.2c-5.7-20.1-16.8-36.6-34.2-48.5C1040.1,720.6,1032.1,716.6,1023.4,714.1z"
			/>
		<path class="st8" d="M913,771.3c-2.3,5.3-2.3,11.3-4.2,16.7c0-25.1,0-50.2-0.1-75.3c0-2.4,0.6-3,3-3c25.1,0.1,50.2,0.1,75.3,0.1
			c-4.3,1.8-9,1.9-13.4,3.1c-19.3,5.5-35,16.1-47.1,32c-0.5,0.7-0.9,1.5-1.4,2.3C919.5,754.5,915.7,762.6,913,771.3z"/>
		<path class="st8" d="M1006.6,885.8c4.5-1.1,9-2,13.4-3.2c19.6-5.4,35.4-16.4,47.6-32.6c0.4-0.5,0.6-1.1,0.9-1.7
			c5.6-7.2,9.4-15.3,12-24c2.4-5.3,2.3-11.3,4.3-16.8c0,25.2,0,50.3,0.1,75.5c0,2.3-0.5,2.8-2.8,2.8
			C1056.9,885.7,1031.7,885.8,1006.6,885.8z"/>
		<path class="st8" d="M908.8,807.6c1.1,4.5,1.9,9,3.2,13.4c5.8,20.2,16.9,36.6,34.3,48.5c7.2,5.6,15.3,9.4,24,12
			c5.1,2.3,10.9,2,16,4.3c-24.8,0-49.7,0-74.5,0.1c-2.4,0-3-0.6-3-3C908.8,857.8,908.8,832.7,908.8,807.6z"/>
		<path class="st8" d="M1050.7,826.3c-1.9-1.9-4.2-2.5-6.8-2.3c-5.8,0.4-11.1-0.8-15.4-5.1c-1.7-1.7-4-2.5-6.4-2.7
			c-1.8-0.2-3.1-0.9-3-2.8c0-2.1,1.8-2.4,3.3-2.5c1.6-0.2,3.3,0,5.9,0c-4.2-3.8-7.8-7-11.3-10.1c-3.7-3.3-3.7-4.3,0.4-6.8
			c0.9-0.5,1.1-0.9,0.7-1.8c-0.7-1.4-0.7-2.9,0.7-3.8c1.5-0.9,3-0.4,4.3,0.7c0.4,0.3,0.8,0.7,1.2,1c1.5-5.4,2.2-5.5,8.5-1.5
			c1.6-4.7,3.2-5,7.1-1.8c9.4,7.7,17,16.8,23.6,26.9C1059.1,817.9,1054.9,822.1,1050.7,826.3z"/>
		<path class="st8" d="M968.3,851.8c1.9-2.1,2.4-4.5,2.3-7.2c-0.3-5.6,0.9-10.8,5-15.1c1.7-1.8,2.7-4.1,2.8-6.7
			c0.1-1.9,1.1-2.9,3-2.9c1.9,0,2.2,1.5,2.4,3c0.2,1.8,0.1,3.6,0.3,5.9c3.2-3.6,6.4-7.2,9.6-10.8c3.4-3.8,4-3.8,7,0.4
			c0.3,0.4,0.5,1,1.1,0.7c1.8-0.8,3.6-1.2,4.6,1.1c0.9,2-0.7,3.4-2,5c1.8,0.8,4.4,0.6,4.4,3.4c0,2.2-2.3,3.1-3,5.2
			c1.5,0.6,3.6,0.6,4.1,2.7c0.5,2.2-1.4,3.2-2.5,4.6c-7.4,9.4-16.7,16.7-26.6,23.3C976.7,860.2,972.5,856,968.3,851.8z"/>
		<path class="st8" d="M943,769.3c1.9,1.8,4.2,2.5,6.8,2.3c5.8-0.3,11.1,0.8,15.4,5.1c1.7,1.7,4,2.4,6.4,2.7c1.8,0.2,3,1,3,2.8
			c0,2.1-1.7,2.3-3.3,2.5c-1.5,0.3-3.1-0.4-5.1,0.7c3.6,3.3,7.1,6.4,10.5,9.5c3.9,3.5,3.7,4.9-0.9,7c-0.6,0.3-1.4,0.3-0.5,1.2
			c1.3,1.4,1.4,2.9-0.1,4.1c-1.6,1.3-3.2,0.5-4.6-0.6c-0.3-0.2-0.7-0.3-1-0.4c-2,4.9-2.4,4.9-8.6,0.9c-1.6,4.7-3,5-7,1.7
			c-9.4-7.7-17.1-16.7-23.6-26.9C934.6,777.6,938.8,773.4,943,769.3z M965.4,784.5l0.2,0.2l0-0.2L965.4,784.5z"/>
		<path class="st8" d="M1025.1,744.1c-1.6,2-2.3,4.3-2.1,6.9c0.3,5.7-0.9,10.8-5.1,15.1c-1.8,1.8-2.6,4.2-2.8,6.7
			c-0.1,1.7-1,2.6-2.7,2.7c-2,0.1-2.4-1.4-2.5-2.8c-0.2-1.8,0.1-3.6,0.1-5.4c0.3-0.3,0.4-0.6,0.1-0.9c-0.1,0.2-0.3,0.4-0.4,0.6
			c-3.4,3.7-6.9,7.4-10.3,11.2c-1.2,1.3-2.2,2.6-4.3,2.1c-1.9-0.5-2.1-2.1-2.4-3.6c0.1-0.2,0.4-0.5,0.4-0.6
			c-0.3-0.5-0.6-0.2-0.8,0.1c-1.5,0.8-3.1,1.8-4.6,0.2c-1.2-1.3-0.9-2.8,0.1-4.3c0.5-0.7,1.3-1.5-0.2-2c-4.5-1.6-3-3.9-0.9-6.4
			c0.4-0.5,0.7-1,1.1-1.6c-4.9-1.7-5.2-3.2-2-7.1c7.5-9.3,16.7-16.7,26.5-23.5C1017.1,735,1021.2,739.4,1025.1,744.1z"/>
		<path class="st24" d="M943,769.3c-4.2,4.2-8.4,8.4-12.6,12.5c-2.6,3.4-4.7,2.5-7.2-0.4c-3.2-3.6-6.8-6.7-10.2-10.1
			c2.7-8.7,6.4-16.8,12-24.1c5.9,5.8,11.8,11.7,17.8,17.4C944.5,766.3,945.1,767.6,943,769.3z"/>
		<path class="st25" d="M1050.7,826.3c4.2-4.2,8.5-8.4,12.7-12.6c2.3-2.9,4.2-2.5,6.6,0.2c3.2,3.7,7,6.9,10.5,10.3
			c-2.6,8.7-6.4,16.8-12,24c-5.9-5.7-11.6-11.6-17.6-17.1C1048.9,829.3,1048.6,828,1050.7,826.3z"/>
		<path class="st26" d="M968.3,851.8c4.2,4.2,8.3,8.4,12.5,12.6c2.9,2.4,2.4,4.2-0.3,6.6c-3.7,3.2-6.9,7-10.4,10.5
			c-8.7-2.6-16.8-6.4-24-12c5.8-5.9,11.7-11.7,17.3-17.7C965.4,849.7,966.7,849.9,968.3,851.8z"/>
		<path class="st27" d="M1025.1,744.1c-3.9-4.6-8-9.1-12.8-12.7c-2.4-2.6-1.5-4.5,0.8-6.8c3.4-3.5,6.6-7.3,10.4-10.4
			c8.7,2.5,16.7,6.4,23.9,11.9c-5.7,5.8-11.5,11.6-17.1,17.5C1028.5,745.5,1027,745.8,1025.1,744.1z"/>
		<polygon class="st23" points="965.4,784.5 965.7,784.4 965.6,784.6 		"/>
		<path class="st23" d="M1009.7,766.9c0.1-0.2,0.3-0.4,0.4-0.6c0.4,0.3,0.2,0.6-0.1,0.9C1009.9,767.1,1009.8,767,1009.7,766.9z"/>
		<path class="st23" d="M992.2,776c0.3-0.3,0.6-0.6,0.8-0.1c0,0.1-0.2,0.4-0.4,0.6C992.5,776.3,992.4,776.2,992.2,776z"/>
	</g>
</g>
<g class="st19">
	<g>
		<path d="M531.5,695c-0.1-47.7,39.5-87.3,87.2-87.4c49.1-0.1,88.3,39.4,88.3,89c0,46.9-40,86.5-87.4,86.6
			C570.9,783.2,531.7,744,531.5,695z M539.9,694.9c-1.2,42.1,35,83.3,85.6,79.7c41.6-3,76.1-39.4,73.1-84.6
			c-2.7-41.5-38.4-76.8-85.4-74.2C573.6,618.1,538.3,655.5,539.9,694.9z"/>
		<path d="M662.4,692.2c-5.6,6.5-10.5,12.1-15.4,17.8c-8.9,10.2-17.8,20.5-26.7,30.7c-1.1,1.3-1.8,2.7-3.6,0.5
			c-13-16.1-26.1-32.1-39.9-49c6.7,0,12.4-0.3,18.2,0.1c3.8,0.2,4.7-1,4.6-4.7c-0.2-11.5,0-22.9-0.2-34.4c0-2.8,0.9-3.6,3.6-3.5
			c10.6,0.1,21.3,0.2,31.9,0c2.9,0,3.5,1,3.4,3.6c-0.1,11.7,0,23.5-0.1,35.2c0,3,0.8,3.8,3.8,3.7
			C648.4,692.1,654.8,692.2,662.4,692.2z M593.6,700.2c8.2,10.1,15.8,19.3,23.2,28.5c1.7,2.1,2.4,0.6,3.4-0.5
			c4.7-5.5,9.4-11.1,14.2-16.6c3-3.5,6-7.1,9.5-11.4c-4.1,0-7.2-0.2-10.2,0.1c-3.6,0.4-4.4-1.1-4.3-4.5c0.2-11.2,0-22.4,0.1-33.6
			c0-3.1-0.5-4.6-4.1-4.3c-4.7,0.3-9.5,0.3-14.3,0c-3.4-0.2-4.2,1-4.1,4.2c0.2,11.6,0,23.2,0.1,34.8c0,2.6-0.8,3.4-3.3,3.3
			C600.8,700,597.8,700.2,593.6,700.2z"/>
	</g>
</g>
<g>
	<path class="st21" d="M1186.3,458v28.9h-67.2V458c0-6.8,5.5-12.3,12.3-12.3h9l12.4,13.2l12.4-13.2h9
		C1180.8,445.7,1186.3,451.2,1186.3,458z"/>
	<g>
		<path class="st21" d="M1178.7,398.9c-1.5-11.8-11.2-21.4-23-22.7c-1-0.1-2-0.2-3-0.2c-14.5,0-26.2,11.8-26.2,26.2
			c0,9.2,4.9,17.8,12.8,22.5c0.2,0.1,0.3,0.2,0.3,0.4l1.8,5.7c0.6,1.7,2.1,2.8,3.8,2.8h14.9c1.7,0,3.3-1.1,3.8-2.8l1.8-5.7
			c0.1-0.2,0.2-0.3,0.3-0.4C1175.1,419.4,1180,409.3,1178.7,398.9z M1162,417.9c-1.8,1.1-3.2,2.8-3.8,4.8l-0.9,2.9h-9l-0.9-2.9
			c-0.7-2-2-3.7-3.9-4.8c-5.5-3.3-8.9-9.3-8.9-15.6c0-10,8.2-18.3,18.3-18.3c0.7,0,1.4,0.1,2.1,0.1c8.3,0.9,15,7.5,16,15.8
			C1171.7,407.1,1168.2,414.2,1162,417.9z"/>
	</g>
	<path class="st21" d="M1160.6,438.2v1.9c0,4.3-3.6,7.9-7.9,7.9c-4.3,0-7.9-3.5-7.9-7.9v-1.9H1160.6z"/>
</g>
<g class="st19">
	<g>
		<path d="M1121.6,373.9c-1.8,5.2-1.9,10.6-3.1,15.9c-7,32.6-21.3,60.9-48,82c-1.8,1.4-2.1,3-1.8,4.9c1.7,9.4-1.5,17-8.5,23.3
			c-2.8,2.6-5.5,5.4-8,8.3c-2.2,2.5-3.2,1.7-4.2-0.9c-2-5.3-4.3-10.6-6.3-15.9c-0.7-1.9-1.6-2.2-3.6-1.5c-4.7,1.7-9.4,3-14.2,4.4
			c-2.7,0.8-5.1,0.1-7.1-2c-7.4-7.6-14.8-15-22.2-22.6c-2.2-2.2-3-4.6-2.1-7.8c1.2-4.7,2.4-9.4,4.2-13.8c0.9-2.4,0.3-3.3-1.9-4.1
			c-5.2-2-10.3-4.3-15.4-6.4c-2.5-1-2.7-2-0.8-3.9c3.9-3.8,7.6-7.8,11.5-11.6c4.8-4.7,10.7-6.2,17.1-5.5c4.3,0.5,6.9-0.9,9.6-4.3
			c19.7-24.6,45.9-38.7,76.3-45.7c4.9-1.1,10-2,15-2.8c7.7-1.3,9.8-0.2,13.5,6.4C1121.6,371.4,1121.6,372.7,1121.6,373.9z
			 M1088.1,412.4c0-8.3-7-15.4-15-15.3c-8,0-15.1,7.2-15.1,15.4c0,8.2,7.1,15.3,15.1,15.3C1081.4,427.7,1088.2,420.7,1088.1,412.4z
			 M1059.1,438.3c0.1-6.6-4.9-11.8-11.2-11.9c-6.1,0-11.4,5.1-11.5,11.4c-0.1,6.5,4.9,11.7,11.3,11.7
			C1054.2,449.5,1059.1,444.7,1059.1,438.3z"/>
		<path d="M959.7,494c2.3-3.1,3.6-6.7,6.1-9.6c6.9-8.4,15.7-9.7,24.7-3.7c1.9,1.2,2.4,2.1,0.5,3.9c-4,3.8-6.1,8.6-6.2,14.2
			c-0.1,2.3,0.9,3.1,3.1,3c5.5-0.2,10.2-2.2,13.9-6.2c1.8-1.9,2.7-1.4,3.9,0.4c3.4,5.5,5.5,11.2,2.4,17.5c-3.4,7-9.6,9.9-17,10.9
			c-9.5,1.2-18.9,2.8-26.3,9.7c-1.4,1.3-2.5,0.9-3.3-1c-0.7-1.6-0.2-3.5-1.5-4.9c0-3,0-6,0-8.9c1.5-3.4,1.9-7.1,3.7-10.4
			c2.3-4.4,5.7-8,9.6-11.4c-3-1.9-6-1.5-8.9-1.4c-1.6,0-3.3,0.3-4.3-1.3C959.7,494.5,959.7,494.2,959.7,494z"/>
	</g>
</g>
</svg>
